<svg width="24" height="24" viewBox="0 0 24 24" fill="none" xmlns="http://www.w3.org/2000/svg">
<circle cx="12" cy="12" r="11.5" fill="#5C6BC0" stroke="white"/>
<mask id="mask0" mask-type="alpha" maskUnits="userSpaceOnUse" x="0" y="0" width="24" height="24">
<circle cx="12" cy="12" r="11.5" fill="white" stroke="white"/>
</mask>
<g mask="url(#mask0)">
<path fill-rule="evenodd" clip-rule="evenodd" d="M6.74003 8.20605C8.48007 6.93971 10.0929 7.00047 10.0929 7.00047L10.2229 7.12862C8.09371 7.63648 7.12829 8.58766 7.12829 8.58766C7.13503 8.58624 7.16135 8.57335 7.2062 8.55138C7.81832 8.25159 11.882 6.26136 16.736 8.65032C16.736 8.65032 15.7686 7.76084 13.7704 7.19127L13.947 7.01755C14.2232 7.0185 15.6851 7.06976 17.2495 8.21365C17.2495 8.21365 19 11.2039 19 14.8776C18.9895 14.8649 18.9474 14.9084 18.8698 14.9886L18.8698 14.9886C18.5179 15.3521 17.4361 16.4694 15.2684 16.5161C15.2684 16.5161 14.8203 16.0091 14.5014 15.5668C16.0487 15.1225 16.6277 14.234 16.6277 14.234C13.6157 16.1307 10.9757 15.8345 7.81747 14.5529C7.78804 14.5529 7.77475 14.5397 7.75956 14.5245V14.5188L7.75696 14.5163C7.7428 14.5029 7.7294 14.4903 7.70165 14.4903H7.6447C7.45104 14.3631 7.32194 14.3004 7.32194 14.3004C7.32194 14.3004 7.90005 15.189 9.38568 15.6332C8.99552 16.0784 8.60917 16.5844 8.60917 16.5844C5.96447 16.5218 5 14.87 5 14.87C5 11.1906 6.74003 8.20605 6.74003 8.20605ZM14.1549 13.7299C14.8298 13.7299 15.3794 13.1604 15.3794 12.4579C15.3794 11.7602 14.8327 11.1906 14.1549 11.1906V11.1934C13.4828 11.1934 12.9322 11.7611 12.9303 12.4636C12.9303 13.1604 13.4799 13.7299 14.1549 13.7299ZM10.9957 12.4579C10.9957 13.1604 10.446 13.7299 9.77109 13.7299C9.09615 13.7299 8.54651 13.1604 8.54651 12.4636C8.54651 11.7611 9.09615 11.1934 9.77109 11.1934L9.77488 11.1906C10.4498 11.1906 10.9957 11.7602 10.9957 12.4579Z" fill="white"/>
</g>
</svg>
