<?xml version="1.0" encoding="UTF-8"?>
<svg width="30px" height="30px" viewBox="0 0 30 30" version="1.1" xmlns="http://www.w3.org/2000/svg" xmlns:xlink="http://www.w3.org/1999/xlink">
    <title>Group 12 Copy</title>
    <g id="Pages" stroke="none" stroke-width="1" fill="none" fill-rule="evenodd">
        <g id="Normal-Logo" transform="translate(-1289.000000, -7313.000000)">
            <g id="Group-5" transform="translate(0.000000, 7031.000000)">
                <g id="Group-21" transform="translate(100.000000, 247.000000)">
                    <g id="Group-12-Copy" transform="translate(1189.000000, 35.000000)">
                        <circle id="Oval" fill="#3D91FA" cx="15" cy="15" r="15"></circle>
                        <path d="M21.4533773,14.0820428 L11.1482702,14.0820428 L15.6504119,9.57990115 C16.0102142,9.22009885 16.0102142,8.62965404 15.6504119,8.26985173 C15.2906096,7.91004942 14.7093904,7.91004942 14.3495881,8.26985173 L8.26985173,14.3495881 C7.91004942,14.7093904 7.91004942,15.2906096 8.26985173,15.6504119 L14.3495881,21.7301483 C14.7093904,22.0899506 15.2906096,22.0899506 15.6504119,21.7301483 C16.0102142,21.370346 16.0102142,20.7891269 15.6504119,20.4293245 L11.1482702,15.9271829 L21.4533773,15.9271829 C21.9607908,15.9271829 22.3759473,15.5120264 22.3759473,15.0046129 C22.3759473,14.4971993 21.9607908,14.0820428 21.4533773,14.0820428 Z" id="Path" fill="#FFFFFF" fill-rule="nonzero" transform="translate(15.187974, 15.000000) rotate(-90.000000) translate(-15.187974, -15.000000) "></path>
                    </g>
                </g>
            </g>
        </g>
    </g>
</svg>