<?xml version="1.0" encoding="UTF-8"?>
<svg width="50px" height="50px" viewBox="0 0 50 50" version="1.1" xmlns="http://www.w3.org/2000/svg" xmlns:xlink="http://www.w3.org/1999/xlink">
    <title>energy</title>
    <g id="Pages" stroke="none" stroke-width="1" fill="none" fill-rule="evenodd">
        <g id="Normal-Logo" transform="translate(-100.000000, -2065.000000)" fill-rule="nonzero">
            <g id="Group-5" transform="translate(0.000000, 1527.000000)">
                <g id="energy" transform="translate(100.000000, 538.000000)">
                    <path d="M25,0 C11.2148285,0 0,11.2148285 0,25 C0,38.7851715 11.2148285,50 25,50 C38.7851715,50 50,38.7851715 50,25 C50,11.2148285 38.7851715,0 25,0 Z M25,47.0703125 C12.8303527,47.0703125 2.9296875,37.1696473 2.9296875,25 C2.9296875,12.8303527 12.8303527,2.9296875 25,2.9296875 C37.1696473,2.9296875 47.0703125,12.8303527 47.0703125,25 C47.0703125,37.1696473 37.1696473,47.0703125 25,47.0703125 Z" id="Shape" fill="#5D5B69"></path>
                    <path d="M37.5518799,20.3971863 L29.7973633,20.3971863 L31.1607361,9.49172969 C31.3369751,8.0802918 29.5890809,7.27043154 28.6273956,8.32023623 L11.3681793,27.1480561 C10.5091095,28.0853271 11.1751557,29.6028137 12.4481201,29.6028137 L20.2026367,29.6028137 L18.8396454,40.5086518 C18.6622619,41.9242859 20.4139709,42.7257538 21.3729858,41.6801453 L38.6318207,22.8519439 C39.4908905,21.9146729 38.8248443,20.3971863 37.5518799,20.3971863 Z M22.315979,36.3151551 L23.3154297,28.3195496 C23.367691,27.9026031 23.2383729,27.483368 22.9598999,27.1682739 C22.6818085,26.8535614 22.2820282,26.6731262 21.8620301,26.6731262 L15.7779693,26.6731262 L27.684021,13.6848449 L26.6845703,21.6804504 C26.632309,22.0970154 26.7616271,22.5162506 27.0401001,22.8313446 C27.3181915,23.1464386 27.7179718,23.3268738 28.1379699,23.3268738 L34.2220307,23.3268738 L22.315979,36.3151551 Z" id="Shape" fill="#3D91FA"></path>
                </g>
            </g>
        </g>
    </g>
</svg>