<?xml version="1.0" encoding="UTF-8"?>
<svg width="50px" height="50px" viewBox="0 0 50 50" version="1.1" xmlns="http://www.w3.org/2000/svg" xmlns:xlink="http://www.w3.org/1999/xlink">
    <title>books</title>
    <g id="Pages" stroke="none" stroke-width="1" fill="none" fill-rule="evenodd">
        <g id="Normal-Logo" transform="translate(-527.000000, -2425.000000)" fill-rule="nonzero">
            <g id="Group-5" transform="translate(0.000000, 1527.000000)">
                <g id="books" transform="translate(527.000000, 898.000000)">
                    <path d="M1.78173719,50.000006 L28.5077951,50.000006 C29.4918214,50.000006 30.2895323,49.2022891 30.2895323,48.2182628 L30.2895323,32.467706 L35.7238307,48.7884187 C35.9689481,49.5141411 36.6504839,50.0019773 37.4164811,50.000006 C37.6095923,49.995156 37.8012527,49.9652091 37.986637,49.9109131 L48.6770601,46.3474388 C49.1430525,46.2159707 49.5354738,45.9005178 49.7640219,45.4736706 C49.99257,45.0468234 50.0375609,44.5453447 49.8886414,44.0846325 L35.6347439,1.32293987 C35.4845165,0.873313807 35.1613007,0.502092516 34.7366229,0.291425539 C34.311945,0.0807585625 33.8208222,0.0480166499 33.3719376,0.200445434 L22.6815145,3.76391982 C22.2318884,3.91414724 21.8606671,4.23736296 21.6500001,4.66204083 C21.4393332,5.0867187 21.4065913,5.57784151 21.55902,6.02672606 L26.0311804,19.7104677 L17.8173719,19.7104677 L17.8173719,9.02004454 C17.8173719,8.03601826 17.019661,7.23830735 16.0356347,7.23830735 L1.78173719,7.23830735 C0.797710913,7.23830735 6.3300021e-15,8.03601826 6.3300021e-15,9.02004454 L6.3300021e-15,48.2182628 C6.3300021e-15,49.2022891 0.797710913,50.000006 1.78173719,50.000006 Z M32.7305122,4.155902 L45.844098,43.532294 L38.5389755,45.9554566 L25.4253898,6.57906459 L32.7305122,4.155902 Z M3.56347439,42.8730512 L14.2538976,42.8730512 L14.2538976,46.4365256 L3.56347439,46.4365256 L3.56347439,42.8730512 Z M3.56347439,17.9287305 L14.2538976,17.9287305 L14.2538976,39.3095768 L3.56347439,39.3095768 L3.56347439,17.9287305 Z M26.7260579,23.2739421 L26.7260579,46.4365256 L17.8173719,46.4365256 L17.8173719,23.2739421 L26.7260579,23.2739421 Z M14.2538976,10.8017817 L14.2538976,14.3652561 L3.56347439,14.3652561 L3.56347439,10.8017817 L14.2538976,10.8017817 Z" id="Shape" fill="#5D5B69"></path>
                    <path d="M39.7683742,37.5278396 C40.2559257,37.3989686 40.6660307,37.0695263 40.8969763,36.6212202 C41.1279219,36.1729141 41.1580744,35.6477387 40.9799555,35.1759465 L33.8530067,13.7951002 C33.6493096,13.1903745 33.1384684,12.7402559 32.512912,12.6142999 C31.8873556,12.4883439 31.2421209,12.7056861 30.8202616,13.1844558 C30.3984024,13.6632256 30.2640089,14.3306863 30.467706,14.935412 L37.5946548,36.3162584 C37.8286534,37.01182 38.4651898,37.4927586 39.1982183,37.5278396 C39.3874853,37.5522668 39.5791071,37.5522668 39.7683742,37.5278396 L39.7683742,37.5278396 Z" id="Path" fill="#3D91FA"></path>
                </g>
            </g>
        </g>
    </g>
</svg>