<?xml version="1.0" encoding="UTF-8"?>
<svg width="50px" height="50px" viewBox="0 0 50 50" version="1.1" xmlns="http://www.w3.org/2000/svg" xmlns:xlink="http://www.w3.org/1999/xlink">
    <title>robot-2</title>
    <g id="Pages" stroke="none" stroke-width="1" fill="none" fill-rule="evenodd">
        <g id="Normal-Logo" transform="translate(-100.000000, -2425.000000)" fill-rule="nonzero">
            <g id="Group-5" transform="translate(0.000000, 1527.000000)">
                <g id="robot-2" transform="translate(100.000000, 898.000000)">
                    <path d="M37.5,50 L12.5,50 C8.95833333,50 6.25,47.2916667 6.25,43.75 L6.25,35.4166667 C6.25,31.875 8.95833333,29.1666667 12.5,29.1666667 L37.5,29.1666667 C41.0416667,29.1666667 43.75,31.875 43.75,35.4166667 L43.75,43.75 C43.75,47.2916667 41.0416667,50 37.5,50 Z M12.5,33.3333333 C11.25,33.3333333 10.4166667,34.1666667 10.4166667,35.4166667 L10.4166667,43.75 C10.4166667,45 11.25,45.8333333 12.5,45.8333333 L37.5,45.8333333 C38.75,45.8333333 39.5833333,45 39.5833333,43.75 L39.5833333,35.4166667 C39.5833333,34.1666667 38.75,33.3333333 37.5,33.3333333 L12.5,33.3333333 Z" id="Shape" fill="#5D5B69"></path>
                    <path d="M47.9166667,41.6666667 L41.6666667,41.6666667 C40.4166667,41.6666667 39.5833333,40.8333333 39.5833333,39.5833333 C39.5833333,38.3333333 40.4166667,37.5 41.6666667,37.5 L47.9166667,37.5 C49.1666667,37.5 50,38.3333333 50,39.5833333 C50,40.8333333 49.1666667,41.6666667 47.9166667,41.6666667 Z" id="Path" fill="#5D5B69"></path>
                    <path d="M8.33333333,41.6666667 L2.08333333,41.6666667 C0.833333333,41.6666667 0,40.8333333 0,39.5833333 C0,38.3333333 0.833333333,37.5 2.08333333,37.5 L8.33333333,37.5 C9.58333333,37.5 10.4166667,38.3333333 10.4166667,39.5833333 C10.4166667,40.8333333 9.58333333,41.6666667 8.33333333,41.6666667 Z" id="Path" fill="#5D5B69"></path>
                    <g id="Group" transform="translate(16.666667, 37.500000)" fill="#3D91FA">
                        <path d="M14.5833333,4.16666667 C13.9583333,4.16666667 13.5416667,3.95833333 13.125,3.54166667 C12.7083333,3.125 12.5,2.70833333 12.5,2.08333333 C12.5,1.45833333 12.7083333,1.04166667 13.125,0.625 C13.9583333,-0.208333333 15.2083333,-0.208333333 16.0416667,0.625 C16.4583333,1.04166667 16.6666667,1.45833333 16.6666667,2.08333333 C16.6666667,2.70833333 16.4583333,3.125 16.0416667,3.54166667 C15.625,3.95833333 15.2083333,4.16666667 14.5833333,4.16666667 Z" id="Path"></path>
                        <path d="M2.08333333,4.16666667 C1.45833333,4.16666667 1.04166667,3.95833333 0.625,3.54166667 C0.208333333,3.125 0,2.70833333 0,2.08333333 C0,1.45833333 0.208333333,1.04166667 0.625,0.625 C1.45833333,-0.208333333 2.70833333,-0.208333333 3.54166667,0.625 C3.95833333,1.04166667 4.16666667,1.45833333 4.16666667,2.08333333 C4.16666667,2.70833333 3.95833333,3.125 3.54166667,3.54166667 C3.125,3.95833333 2.70833333,4.16666667 2.08333333,4.16666667 L2.08333333,4.16666667 Z" id="Path"></path>
                    </g>
                    <g id="Group" transform="translate(10.416667, 18.750000)" fill="#5D5B69">
                        <path d="M27.0833333,14.5833333 C25.8333333,14.5833333 25,13.75 25,12.5 L25,2.08333333 C25,0.833333333 25.8333333,0 27.0833333,0 C28.3333333,0 29.1666667,0.833333333 29.1666667,2.08333333 L29.1666667,12.5 C29.1666667,13.75 28.3333333,14.5833333 27.0833333,14.5833333 Z" id="Path"></path>
                        <path d="M2.08333333,14.5833333 C0.833333333,14.5833333 0,13.75 0,12.5 L0,2.08333333 C0,0.833333333 0.833333333,0 2.08333333,0 C3.33333333,0 4.16666667,0.833333333 4.16666667,2.08333333 L4.16666667,12.5 C4.16666667,13.75 3.33333333,14.5833333 2.08333333,14.5833333 Z" id="Path"></path>
                    </g>
                    <path d="M37.5,22.9166667 C33.9583333,22.9166667 31.25,20.2083333 31.25,16.6666667 C31.25,13.125 33.9583333,10.4166667 37.5,10.4166667 C41.0416667,10.4166667 43.75,13.125 43.75,16.6666667 C43.75,20.2083333 41.0416667,22.9166667 37.5,22.9166667 Z M37.5,14.5833333 C36.25,14.5833333 35.4166667,15.4166667 35.4166667,16.6666667 C35.4166667,17.9166667 36.25,18.75 37.5,18.75 C38.75,18.75 39.5833333,17.9166667 39.5833333,16.6666667 C39.5833333,15.4166667 38.75,14.5833333 37.5,14.5833333 Z" id="Shape" fill="#3D91FA"></path>
                    <path d="M12.5,22.9166667 C8.95833333,22.9166667 6.25,20.2083333 6.25,16.6666667 C6.25,13.125 8.95833333,10.4166667 12.5,10.4166667 C16.0416667,10.4166667 18.75,13.125 18.75,16.6666667 C18.75,20.2083333 16.0416667,22.9166667 12.5,22.9166667 Z M12.5,14.5833333 C11.25,14.5833333 10.4166667,15.4166667 10.4166667,16.6666667 C10.4166667,17.9166667 11.25,18.75 12.5,18.75 C13.75,18.75 14.5833333,17.9166667 14.5833333,16.6666667 C14.5833333,15.4166667 13.75,14.5833333 12.5,14.5833333 Z" id="Shape" fill="#3D91FA"></path>
                    <path d="M33.3333333,8.33333333 C32.7083333,8.33333333 32.2916667,8.125 31.875,7.70833333 L29.1666667,5 L26.4583333,7.70833333 C25.625,8.54166667 24.375,8.54166667 23.5416667,7.70833333 L20.8333333,5 L18.125,7.70833333 C17.2916667,8.54166667 16.0416667,8.54166667 15.2083333,7.70833333 C14.375,6.875 14.375,5.625 15.2083333,4.79166667 L19.375,0.625 C20.2083333,-0.208333333 21.4583333,-0.208333333 22.2916667,0.625 L25,3.33333333 L27.7083333,0.625 C28.5416667,-0.208333333 29.7916667,-0.208333333 30.625,0.625 L34.7916667,4.79166667 C35.625,5.625 35.625,6.875 34.7916667,7.70833333 C34.375,8.125 33.9583333,8.33333333 33.3333333,8.33333333 Z" id="Path" fill="#3D91FA"></path>
                </g>
            </g>
        </g>
    </g>
</svg>