<?xml version="1.0" encoding="UTF-8"?>
<svg width="49px" height="50px" viewBox="0 0 49 50" version="1.1" xmlns="http://www.w3.org/2000/svg" xmlns:xlink="http://www.w3.org/1999/xlink">
    <title>gear-5</title>
    <g id="Pages" stroke="none" stroke-width="1" fill="none" fill-rule="evenodd">
        <g id="Normal-Logo" transform="translate(-100.000000, -1774.000000)" fill-rule="nonzero">
            <g id="Group-5" transform="translate(0.000000, 1527.000000)">
                <g id="gear-5" transform="translate(100.000000, 247.000000)">
                    <path d="M44.5585937,27.3259766 C44.728418,25.8290039 44.7402344,24.2757812 44.5585937,22.6740234 L47.9452148,18.6885742 C48.4798828,18.0594727 48.5611328,17.1623047 48.1483398,16.4472656 L43.590332,8.55253906 C43.1775391,7.83759766 42.3599609,7.45927734 41.5477539,7.6078125 L36.4022461,8.54814453 C35.1496094,7.61875 33.8000977,6.83847656 32.3730469,6.21855469 L30.6162109,1.29648438 C30.3386719,0.519042969 29.6023437,0 28.7767578,0 L19.6607422,0 C18.8351562,0 18.0988281,0.519042969 17.8212891,1.29658203 L16.0644531,6.21865234 C14.6375,6.83857422 13.2878906,7.61894531 12.0352539,8.54824219 L6.88974609,7.60791016 C6.07802734,7.45976563 5.25996094,7.83769531 4.84716797,8.55263672 L0.289160156,16.4473633 C-0.123632813,17.1623047 -0.0423828125,18.0595703 0.492285156,18.6886719 L3.87890625,22.6741211 C3.70908203,24.1710938 3.69726562,25.7243164 3.87890625,27.3260742 L0.492285156,31.3115234 C-0.0423828125,31.940625 -0.123632813,32.837793 0.289160156,33.552832 L4.84716797,41.4475586 C5.25996094,42.1625 6.07714844,42.540332 6.88974609,42.3922852 L12.0352539,41.4519531 C13.2878906,42.3813477 14.6374023,43.1616211 16.0644531,43.781543 L17.8212891,48.7036133 C18.0988281,49.4811523 18.8351562,50.0001953 19.6607422,50.0001953 L28.7767578,50.0001953 C29.6023437,50.0001953 30.3386719,49.4811523 30.6162109,48.7036133 L32.3730469,43.781543 C33.8,43.1616211 35.1496094,42.38125 36.4022461,41.4519531 L41.5477539,42.3922852 C42.3595703,42.5405273 43.1774414,42.1625 43.590332,41.4475586 L48.1483398,33.552832 C48.5611328,32.8378906 48.4798828,31.940625 47.9452148,31.3115234 L44.5585937,27.3259766 Z M40.5773437,22.3791992 C40.8529297,24.1152344 40.8533203,25.8826172 40.5773437,27.6208984 C40.4879883,28.1837891 40.6489258,28.7575195 41.0180664,29.1917969 L44.0771484,32.7917969 L40.8958984,38.3020508 L36.2457031,37.4521484 C35.6838867,37.349707 35.1052734,37.4978516 34.662207,37.8582031 C33.2944336,38.9706055 31.7695312,39.8523438 30.1296875,40.4789063 C29.596582,40.6826172 29.1792969,41.109375 28.9874023,41.6467773 L27.4,46.09375 L21.0375,46.09375 L19.4501953,41.6467773 C19.2583008,41.1092773 18.8410156,40.6825195 18.3079102,40.4789063 C16.6680664,39.8523438 15.1431641,38.9706055 13.7753906,37.8582031 C13.3324219,37.4978516 12.7538086,37.349707 12.1918945,37.4521484 L7.54169922,38.3020508 L4.36035156,32.7917969 L7.41943359,29.1917969 C7.78847656,28.7575195 7.94951172,28.1837891 7.86015625,27.6208984 C7.58457031,25.8848633 7.58417969,24.1174805 7.86015625,22.3791992 C7.94951172,21.8163086 7.78857422,21.2425781 7.41943359,20.8083008 L4.36035156,17.2082031 L7.54160156,11.6979492 L12.1917969,12.5478516 C12.7536133,12.650293 13.3322266,12.5021484 13.775293,12.1417969 C15.1430664,11.0293945 16.6679687,10.1476562 18.3078125,9.52109375 C18.840918,9.31738281 19.2582031,8.890625 19.4500977,8.35322266 L21.0375,3.90625 L27.4,3.90625 L28.9873047,8.35322266 C29.1791992,8.89072266 29.5964844,9.31748047 30.1295898,9.52109375 C31.7694336,10.1476562 33.2943359,11.0293945 34.6621094,12.1417969 C35.1050781,12.5021484 35.684082,12.6504883 36.2456055,12.5478516 L40.8958008,11.6979492 L44.0771484,17.2082031 L41.0179688,20.8082031 C40.6489258,21.2424805 40.4879883,21.8163086 40.5773437,22.3791992 Z" id="Shape" fill="#5D5B69"></path>
                    <path d="M24.21875,15.234375 C29.6036133,15.234375 33.984375,19.6152344 33.984375,25 C33.984375,30.3847656 29.6036133,34.765625 24.21875,34.765625 C18.8338867,34.765625 14.453125,30.3847656 14.453125,25 C14.453125,19.6152344 18.8338867,15.234375 24.21875,15.234375 Z M24.21875,19.140625 C20.9878906,19.140625 18.359375,21.7691406 18.359375,25 C18.359375,28.2308594 20.9878906,30.859375 24.21875,30.859375 C27.4496094,30.859375 30.078125,28.2308594 30.078125,25 C30.078125,21.7691406 27.4496094,19.140625 24.21875,19.140625 Z" id="Path-3" fill="#3D91FA"></path>
                    <path d="M26.6601563,25 C26.6601563,26.3483398 25.5670898,27.4414062 24.21875,27.4414062 C22.8704102,27.4414062 21.7773438,26.3483398 21.7773438,25 C21.7773438,23.6516602 22.8704102,22.5585938 24.21875,22.5585938 C25.5670898,22.5585938 26.6601563,23.6516602 26.6601563,25 Z" id="Path" fill="#3D91FA"></path>
                </g>
            </g>
        </g>
    </g>
</svg>