<?xml version="1.0" encoding="UTF-8"?>
<svg width="57px" height="50px" viewBox="0 0 57 50" version="1.1" xmlns="http://www.w3.org/2000/svg" xmlns:xlink="http://www.w3.org/1999/xlink">
    <title>question-3</title>
    <g id="Pages" stroke="none" stroke-width="1" fill="none" fill-rule="evenodd">
        <g id="Normal-Logo" transform="translate(-954.000000, -2065.000000)" fill-rule="nonzero">
            <g id="Group-5" transform="translate(0.000000, 1527.000000)">
                <g id="Group-6-Copy-3" transform="translate(954.000000, 538.000000)">
                    <g id="question-3" transform="translate(-0.000000, 0.000000)">
                        <path d="M6.37377778,43.0014444 C5.91966667,44.5794444 5.08688889,46.0006667 3.93266667,47.1548889 C3.456,47.6315556 3.31344444,48.3484444 3.57133333,48.9712222 C3.82922222,49.5938889 4.437,50 5.11111111,50 L8.44444444,50 C11.122,50 13.5992222,48.7071111 15.1555556,46.5596667 C15.6768889,46.6233333 16.2188889,46.6666667 16.7777778,46.6666667 C25.3277778,46.6666667 32.3934444,40.1947778 33.3363333,31.8928889 C35.4074444,32.818 37.7001111,33.3333333 40.1111111,33.3333333 C40.67,33.3333333 41.212,33.29 41.7333333,33.2263333 C43.2895556,35.3737778 45.7668889,36.6666667 48.4444444,36.6666667 L51.7777778,36.6666667 C52.4518889,36.6666667 53.0595556,36.2605556 53.3175556,35.6377778 C53.5754444,35.015 53.4328889,34.2981111 52.9562222,33.8214444 C51.802,32.6672222 50.9692222,31.246 50.515,29.668 C54.526,26.4735556 56.8888889,21.6926667 56.8888889,16.6666667 C56.8888889,7.47666667 49.3624444,6.31593543e-15 40.1111111,6.31593543e-15 C31.5622222,6.31593543e-15 24.4972222,6.47022222 23.5528889,14.7707778 C21.4341111,13.8265556 19.1351111,13.3333333 16.7777778,13.3333333 C7.52644444,13.3333333 0,20.81 0,30 C0,35.026 2.36288889,39.8068889 6.37377778,43.0014444 Z M40.1111111,3.33333333 C47.5244444,3.33333333 53.5555556,9.31466667 53.5555556,16.6666667 C53.5555556,20.9735556 51.3646667,25.066 47.6948889,27.6138889 C47.1583333,27.9864444 46.8887778,28.6381111 47.0055556,29.2807778 C47.2673333,30.7218889 47.7562222,32.0865556 48.4503333,33.3332222 L48.4444444,33.3332222 C46.6033333,33.3332222 44.9166667,32.3021111 44.0426667,30.6424444 C43.7085556,30.008 43.0053333,29.6571111 42.2953333,29.7746667 C41.48,29.91 40.7965556,30 40.1111111,30 C32.7591111,30 26.7777778,24.0186667 26.7777778,16.6666667 C26.7777778,9.31466667 32.7591111,3.33333333 40.1111111,3.33333333 Z M16.7777778,16.6666667 C19.1777778,16.6666667 21.5014444,17.304 23.5472222,18.5126667 C24.0654444,23.1938889 26.5294444,27.2967778 30.1111111,29.9914444 C30.1111111,29.9943333 30.1111111,29.9971111 30.1111111,30 C30.1111111,37.352 24.1297778,43.3333333 16.7777778,43.3333333 C16.0923333,43.3333333 15.4087778,43.2433333 14.5934444,43.1081111 C13.885,42.9905556 13.1807778,43.3403333 12.8461111,43.9758889 C11.9722222,45.6356667 10.2855556,46.6666667 8.44444444,46.6666667 L8.43855556,46.6666667 C9.13266667,45.4198889 9.62144444,44.0552222 9.88322222,42.6141111 C10,41.9714444 9.73044444,41.3197778 9.19388889,40.9472222 C5.52422222,38.3992222 3.33333333,34.3068889 3.33333333,30 C3.33333333,22.648 9.36444444,16.6666667 16.7777778,16.6666667 Z" id="Shape" fill="#5D5B69"></path>
                        <path d="M36.7777778,13.3333333 C37.6982222,13.3333333 38.4444444,12.5871111 38.4444444,11.6666667 C38.4444444,10.7476667 39.1921111,10 40.1111111,10 C41.0301111,10 41.7777778,10.7476667 41.7777778,11.6666667 C41.7777778,12.2023333 41.5297778,12.6921111 41.0972222,13.0105556 C39.4361111,14.2335556 38.4444444,16.194 38.4444444,18.2546667 L38.4444444,18.3333333 C38.4444444,19.2537778 39.1906667,20 40.1111111,20 C41.0315556,20 41.7777778,19.2537778 41.7777778,18.3333333 L41.7777778,18.2546667 C41.7777778,17.2492222 42.2621111,16.2922222 43.0735556,15.6947778 C44.3494444,14.7554444 45.1111111,13.2496667 45.1111111,11.6666667 C45.1111111,8.90966667 42.8681111,6.66666667 40.1111111,6.66666667 C37.3541111,6.66666667 35.1111111,8.90966667 35.1111111,11.6666667 C35.1111111,12.5871111 35.8573333,13.3333333 36.7777778,13.3333333 Z" id="Path" fill="#3D91FA"></path>
                        <circle id="Oval" fill="#3D91FA" cx="40.1111111" cy="23.3333333" r="1.66666667"></circle>
                        <circle id="Oval" fill="#3D91FA" cx="23.4444444" cy="30" r="1.66666667"></circle>
                        <circle id="Oval" fill="#3D91FA" cx="16.7777778" cy="30" r="1.66666667"></circle>
                        <circle id="Oval" fill="#3D91FA" cx="10.1111111" cy="30" r="1.66666667"></circle>
                    </g>
                </g>
            </g>
        </g>
    </g>
</svg>