<?xml version="1.0" encoding="UTF-8"?>
<svg width="50px" height="50px" viewBox="0 0 50 50" version="1.1" xmlns="http://www.w3.org/2000/svg" xmlns:xlink="http://www.w3.org/1999/xlink">
    <title>benefits</title>
    <g id="Pages" stroke="none" stroke-width="1" fill="none" fill-rule="evenodd">
        <g id="Normal-Logo" transform="translate(-526.000000, -2065.000000)" fill-rule="nonzero">
            <g id="Group-5" transform="translate(0.000000, 1527.000000)">
                <g id="benefits" transform="translate(526.000000, 538.000000)">
                    <path d="M48.046875,46.09375 L46.5705871,46.09375 L46.5705871,13.8671875 C46.5705871,12.7883911 45.6962586,11.9140625 44.6174621,11.9140625 L35.805893,11.9140625 C34.7270966,11.9140625 33.852768,12.7883911 33.852768,13.8671875 L33.852768,46.09375 L31.3591004,46.09375 L31.3591004,25.78125 C31.3591004,24.7024536 30.4843902,23.828125 29.4059754,23.828125 L20.5940246,23.828125 C19.5156098,23.828125 18.6408996,24.7024536 18.6408996,25.78125 L18.6408996,46.09375 L16.147232,46.09375 L16.147232,36.9140625 C16.147232,35.8352661 15.2729034,34.9609375 14.194107,34.9609375 L5.38253789,34.9609375 C4.30374141,34.9609375 3.42941289,35.8352661 3.42941289,36.9140625 L3.42941289,46.09375 L1.953125,46.09375 C0.874328613,46.09375 0,46.9680786 0,48.046875 C0,49.1256714 0.874328613,50 1.953125,50 L48.046875,50 C49.1256714,50 50,49.1256714 50,48.046875 C50,46.9680786 49.1256714,46.09375 48.046875,46.09375 Z M7.33566289,46.09375 L7.33566289,38.8671875 L12.240982,38.8671875 L12.240982,46.09375 L7.33566289,46.09375 Z M22.5471496,46.09375 L22.5471496,27.734375 L27.4528504,27.734375 L27.4528504,46.09375 L22.5471496,46.09375 Z M37.759018,46.09375 L37.759018,15.8203125 L42.6643371,15.8203125 L42.6643371,46.09375 L37.759018,46.09375 Z" id="Shape" fill="#5D5B69"></path>
                    <path d="M4.00123594,31.4594269 C3.23867793,30.6964874 3.23867793,29.4597626 4.00123594,28.6972046 L28.7921905,3.90625 L27.6481629,3.90625 C26.5693664,3.90625 25.6950379,3.03192139 25.6950379,1.953125 C25.6950379,0.874328613 26.5693664,0 27.6481629,0 L33.5071563,0 C34.0843201,0 34.6523285,0.269317578 35.018158,0.715255762 C35.3012085,1.06048584 35.4606629,1.50642393 35.4606629,1.953125 L35.4606629,7.8125 C35.4606629,8.89129639 34.5863342,9.765625 33.5075379,9.765625 C32.4287414,9.765625 31.5544129,8.89129639 31.5544129,7.8125 L31.5544129,6.66847227 L6.7634582,31.4594269 C6.38237002,31.8405151 5.88226318,32.03125 5.38253789,32.03125 C4.88243105,32.03125 4.38270566,31.8405151 4.00123594,31.4594269 L4.00123594,31.4594269 Z" id="Path" fill="#3D91FA"></path>
                </g>
            </g>
        </g>
    </g>
</svg>