<?xml version="1.0" encoding="UTF-8"?>
<svg width="50px" height="50px" viewBox="0 0 50 50" version="1.1" xmlns="http://www.w3.org/2000/svg" xmlns:xlink="http://www.w3.org/1999/xlink">
    <title>world-4</title>
    <g id="Pages" stroke="none" stroke-width="1" fill="none" fill-rule="evenodd">
        <g id="Normal-Logo" transform="translate(-526.000000, -2808.000000)" fill-rule="nonzero">
            <g id="Group-5" transform="translate(0.000000, 1527.000000)">
                <g id="world-4" transform="translate(526.000000, 1281.000000)">
                    <path d="M45.3703125,16.7620117 C46.4983398,19.5404297 47.0703125,22.3121094 47.0703125,25 C47.0703125,37.1696289 37.1696289,47.0703125 25,47.0703125 C19.9654297,47.0703125 15.0898438,45.2867188 11.1180664,42.0208008 C11.5591797,41.3359375 11.8164062,40.521875 11.8164062,39.6484375 C11.8164062,37.225293 9.84501953,35.2539062 7.421875,35.2539062 C4.99873047,35.2539062 3.02734375,37.225293 3.02734375,39.6484375 C3.02734375,42.071582 4.99873047,44.0429688 7.421875,44.0429688 C7.87929687,44.0429688 8.32041016,43.9725586 8.73544922,43.8422852 C13.3212891,47.8195312 19.0588867,50 25,50 C38.7457031,50 50,38.74375 50,25 C50,21.9325195 49.3556641,18.7901367 48.0848633,15.6598633 L45.3703125,16.7620117 Z M5.95703125,39.6484375 C5.95703125,38.8407227 6.61416016,38.1835938 7.421875,38.1835938 C8.22958984,38.1835938 8.88671875,38.8407227 8.88671875,39.6484375 C8.88671875,40.4561523 8.22958984,41.1132812 7.421875,41.1132812 C6.61416016,41.1132812 5.95703125,40.4561523 5.95703125,39.6484375 Z" id="Shape" fill="#3D91FA"></path>
                    <path d="M25,8.88671875 C16.1151367,8.88671875 8.88671875,16.1151367 8.88671875,25 C8.88671875,33.8848633 16.1151367,41.1132812 25,41.1132812 C33.8848633,41.1132812 41.1132812,33.8848633 41.1132812,25 C41.1132812,16.1151367 33.8848633,8.88671875 25,8.88671875 Z M35.9564453,17.6757812 L31.5766602,17.6757812 C31.2135742,16.0144531 30.6743164,14.2702148 29.89375,12.7586914 C32.3750977,13.7542969 34.4858398,15.4830078 35.9564453,17.6757812 Z M38.1835938,25 C38.1835938,26.5402344 37.9171875,28.0193359 37.4294922,29.3945312 L32.0666016,29.3945312 C32.2358398,27.9833984 32.3242188,26.5070313 32.3242188,25 C32.3242188,23.4929687 32.2359375,22.0166016 32.0666016,20.6054688 L37.4294922,20.6054688 C37.9171875,21.9806641 38.1835938,23.4597656 38.1835938,25 Z M25,38.1835938 C23.2568359,38.1835938 21.878418,34.1386719 21.4295898,32.3242188 L28.5704102,32.3242188 C27.9448242,34.8532227 26.5149414,38.1835938 25,38.1835938 L25,38.1835938 Z M20.8850586,29.3945312 C20.7020508,27.9989258 20.6054688,26.5206055 20.6054688,25 C20.6054688,23.4793945 20.7020508,22.0010742 20.8850586,20.6054688 L29.1149414,20.6054688 C29.2979492,22.0010742 29.3945312,23.4793945 29.3945312,25 C29.3945312,26.5206055 29.2979492,27.9989258 29.1149414,29.3945312 L20.8850586,29.3945312 Z M11.8164062,25 C11.8164062,23.4597656 12.0828125,21.9806641 12.5705078,20.6054688 L17.9333984,20.6054688 C17.7641602,22.0166016 17.6757812,23.4929688 17.6757812,25 C17.6757812,26.5070313 17.7640625,27.9833984 17.9333984,29.3945312 L12.5705078,29.3945312 C12.0828125,28.0193359 11.8164062,26.5402344 11.8164062,25 L11.8164062,25 Z M25,11.8164062 C26.7431641,11.8164062 28.121582,15.8613281 28.5704102,17.6757812 L21.4295898,17.6757812 C22.0551758,15.1467773 23.4850586,11.8164062 25,11.8164062 L25,11.8164062 Z M20.10625,12.7586914 C19.3253906,14.2706055 18.7862305,16.0150391 18.4233398,17.6757812 L14.0435547,17.6757812 C15.5141602,15.4830078 17.6249023,13.7542969 20.10625,12.7586914 Z M14.0435547,32.3242188 L18.4233398,32.3242188 C18.7864258,33.9855469 19.3256836,35.7297852 20.10625,37.2413086 C17.6249023,36.2457031 15.5141602,34.5169922 14.0435547,32.3242188 Z M29.89375,37.2413086 C30.6746094,35.7293945 31.2137695,33.9849609 31.5766602,32.3242188 L35.9564453,32.3242188 C34.4858398,34.5169922 32.3750977,36.2457031 29.89375,37.2413086 Z" id="Shape" fill="#5D5B69"></path>
                    <path d="M46.9726562,10.3515625 C46.9726562,7.92841797 45.0012695,5.95703125 42.578125,5.95703125 C42.1207031,5.95703125 41.6795898,6.02744141 41.2645508,6.15771484 C36.6787109,2.18046875 30.9411133,0 25,0 C11.2542969,0 -2.77555756e-15,11.25625 -2.77555756e-15,25 C-2.77555756e-15,28.0674805 0.644335937,31.2098633 1.91513672,34.3401367 L4.6296875,33.2380859 C3.50166016,30.4595703 2.9296875,27.6878906 2.9296875,25 C2.9296875,12.8303711 12.8303711,2.9296875 25,2.9296875 C30.0345703,2.9296875 34.9101562,4.71328125 38.8819336,7.97919922 C38.4408203,8.6640625 38.1835938,9.478125 38.1835938,10.3515625 C38.1835938,12.774707 40.1549805,14.7460938 42.578125,14.7460938 C45.0012695,14.7460938 46.9726562,12.774707 46.9726562,10.3515625 Z M41.1132812,10.3515625 C41.1132812,9.54384766 41.7704102,8.88671875 42.578125,8.88671875 C43.3858398,8.88671875 44.0429688,9.54384766 44.0429688,10.3515625 C44.0429688,11.1592773 43.3858398,11.8164063 42.578125,11.8164063 C41.7704102,11.8164063 41.1132812,11.1592773 41.1132812,10.3515625 Z" id="Shape" fill="#3D91FA"></path>
                </g>
            </g>
        </g>
    </g>
</svg>