<?xml version="1.0" encoding="UTF-8"?>
<svg width="46px" height="50px" viewBox="0 0 46 50" version="1.1" xmlns="http://www.w3.org/2000/svg" xmlns:xlink="http://www.w3.org/1999/xlink">
    <title>notification-4</title>
    <g id="Pages" stroke="none" stroke-width="1" fill="none" fill-rule="evenodd">
        <g id="Normal-Logo" transform="translate(-527.000000, -1774.000000)" fill-rule="nonzero">
            <g id="Group-5" transform="translate(0.000000, 1527.000000)">
                <g id="notification-4" transform="translate(527.000000, 247.000000)">
                    <path d="M45.1694455,37.3547862 C44.8952464,34.4999367 42.3469181,32.257995 39.3790759,32.257995 C39.0242061,32.257995 38.7419265,31.9757153 38.7419265,31.6208456 L38.7419265,22.1208416 C38.7419265,15.0643883 34.2258557,8.91120311 28.0080262,6.61283241 C28.0806163,6.24988216 28.1208842,5.87898606 28.1208842,5.50795528 C28.1210189,2.46779237 25.6533612,5.55111512e-15 22.612929,5.55111512e-15 C19.5724967,5.55111512e-15 17.104839,2.46779237 17.104839,5.50808995 C17.104839,5.87104021 17.145107,6.23385578 17.2096165,6.58064499 C15.0725869,7.33873292 13.0967639,8.54030701 11.411301,10.1693409 C8.23390386,13.23388 6.48393147,17.3548132 6.48393147,21.774187 L6.48393147,31.6209803 C6.48393147,31.9677695 6.20165179,32.2581297 5.84678206,32.2581297 C2.87099401,32.2581297 0.330611582,34.5000714 0.0564124291,37.3549209 C-0.0968481975,38.9436868 0.427443208,40.5242375 1.49999824,41.7017047 C2.56447275,42.8710914 4.08872914,43.5485087 5.67736038,43.5485087 L15.4032151,43.5485087 C15.8064333,47.1695267 18.8871335,50.0001347 22.612929,50.0001347 C26.3387244,50.0001347 29.4194246,47.1695267 29.8226428,43.5485087 L39.5484976,43.5485087 C41.1372635,43.5485087 42.6613852,42.8710914 43.7258597,41.7017047 C44.7903342,40.5241029 45.3227061,38.9435521 45.1694455,37.3547862 L45.1694455,37.3547862 Z M22.612929,3.22574563 C23.8709321,3.22574563 24.8951386,4.24995219 24.8951386,5.50795528 C24.8951386,5.61273275 24.8789776,5.70956438 24.8628165,5.81434185 C24.3144182,5.73367128 23.7579394,5.67724228 23.2014605,5.66108123 C22.2417635,5.62875913 21.2982275,5.69340333 20.3627721,5.82242238 C20.346611,5.7176449 20.33045,5.62081328 20.33045,5.5160358 C20.3307193,4.24995219 21.3549259,3.22574563 22.612929,3.22574563 L22.612929,3.22574563 Z M22.612929,46.7741197 C20.669428,46.7741197 19.0403941,45.3869629 18.6612828,43.5483741 L26.5644404,43.5483741 C26.1855985,45.3870976 24.5565646,46.7741197 22.612929,46.7741197 Z M41.3387379,39.5322184 C40.8710102,40.0403488 40.2419413,40.3224938 39.5483629,40.3224938 L5.67749506,40.3224938 C4.98391665,40.3224938 4.35498245,40.0402141 3.88712004,39.5322184 C3.41939231,39.0242227 3.20162216,38.3547512 3.27421221,37.6613075 C3.38707021,36.4435723 4.52426945,35.4838753 5.85486258,35.4838753 C7.98394628,35.4838753 9.71775762,33.750064 9.71775762,31.6209803 L9.71775762,21.774187 C9.71775762,18.2419201 11.1209408,14.9435845 13.6613232,12.4919531 C16.0806325,10.145234 19.2420032,8.87093516 22.612929,8.87093516 C22.7742701,8.87093516 22.9273961,8.87093516 23.0887372,8.87901568 C29.9355008,9.12089274 35.5161808,15.064523 35.5161808,22.1209762 L35.5161808,31.6209803 C35.5161808,33.750064 37.2499922,35.4838753 39.3790759,35.4838753 C40.709669,35.4838753 41.8468683,36.4435723 41.9597263,37.6613075 C42.0242358,38.3547512 41.8064656,39.0161422 41.3387379,39.5322184 Z" id="Shape" fill="#5D5B69"></path>
                    <path d="M1.72584892,19.3548778 C2.4677758,19.3548778 3.13711263,18.8388016 3.29845379,18.0887942 C4.08064862,14.5484468 5.84678206,11.3227012 8.42743243,8.75821183 C9.05650131,8.12914295 9.05650131,7.10493639 8.42743243,6.47600219 C7.79836355,5.84693331 6.77415699,5.84693331 6.14522279,6.47600219 C3.12916678,9.47576246 1.05651209,13.2581216 0.145298205,17.4031616 C-0.0482303713,18.2741076 0.500167934,19.136973 1.37111387,19.3225557 C1.50013292,19.3467973 1.61299092,19.3548778 1.72584892,19.3548778 L1.72584892,19.3548778 Z" id="Path" fill="#3D91FA"></path>
                    <path d="M43.500009,19.3548778 C43.612867,19.3548778 43.7339402,19.3387168 43.8467982,19.3146099 C44.7177442,19.1210813 45.2661425,18.2661617 45.0726139,17.3952158 C44.1612653,13.2500411 42.0887453,9.47589714 39.0725546,6.46778699 C38.4434857,5.83871811 37.4192792,5.83871811 36.790345,6.46778699 C36.1614108,7.09685587 36.1612761,8.12106243 36.790345,8.74999663 C39.3629148,11.314486 41.1371288,14.5403663 41.9193236,18.080579 C42.0887453,18.8386669 42.7580821,19.3548778 43.500009,19.3548778 L43.500009,19.3548778 Z" id="Path" fill="#3D91FA"></path>
                </g>
            </g>
        </g>
    </g>
</svg>