<?xml version="1.0" encoding="UTF-8"?>
<svg width="45px" height="50px" viewBox="0 0 45 50" version="1.1" xmlns="http://www.w3.org/2000/svg" xmlns:xlink="http://www.w3.org/1999/xlink">
    <title>checkout</title>
    <g id="Pages" stroke="none" stroke-width="1" fill="none" fill-rule="evenodd">
        <g id="Normal-Logo" transform="translate(-100.000000, -2808.000000)" fill-rule="nonzero">
            <g id="Group-5" transform="translate(0.000000, 1527.000000)">
                <g id="checkout" transform="translate(100.000000, 1281.000000)">
                    <path d="M43.3737437,41.0233702 L10.6449986,41.0233702 C10.2425689,41.0233702 10.0701448,40.494667 10.3852942,40.2517349 L14.9412861,36.7501581 L40.9732668,36.7501581 C42.8241018,36.7501581 44.3591464,35.2287878 44.3950414,33.3808372 L44.6867949,18.3673339 C44.720126,16.6558056 43.4667929,15.1696893 41.7715028,14.9162878 C40.9559603,14.7942876 40.1922304,15.3550398 40.0700166,16.1717575 C39.9478027,16.9884751 40.5113326,17.7484659 41.328798,17.8706798 C41.5412835,17.9024084 41.698324,18.0870111 41.6941577,18.3008854 L41.4024041,33.3227215 C41.3979172,33.5536886 41.205409,33.7590165 40.9733736,33.7590165 L15.6212609,33.7590165 L10.8985069,13.3398998 L13.2955653,13.6893418 C14.1128171,13.8111283 14.8748376,13.2439662 14.9971583,12.4272486 C15.1193722,11.6105309 14.5558423,10.8472284 13.73827,10.7250145 L10.1478104,10.1873376 L8.77525468,4.85191184 C8.60550133,4.19052543 8.00896093,3.73959473 7.32556748,3.73959473 L1.49829499,3.73959473 C0.67174894,3.73959473 0.00160245453,4.40942072 0.00160245453,5.23521896 C0.00160245453,6.0610172 0.67164211,6.73084319 1.49829499,6.73084319 L6.1643221,6.73084319 L12.7564996,34.6262649 L8.55710721,37.8614069 C6.02362659,39.813517 7.44852916,44.0146187 10.6448918,44.0146187 L14.5738967,44.0146187 C14.3999769,44.4419399 14.3044706,44.9867744 14.3044706,45.5216737 C14.3044706,47.9956499 16.3315756,50 18.8232856,50 C21.3149956,50 23.3421005,47.9998163 23.3421005,45.5258401 C23.3421005,44.9909408 23.2465942,44.4419399 23.0726745,44.0146187 L31.2467951,44.0146187 C31.0728754,44.4419399 30.9773691,44.9867744 30.9773691,45.5216737 C30.9773691,47.9956499 33.0044741,50 35.496184,50 C37.987894,50 40.0151058,47.9998163 40.0151058,45.5258401 C40.0151058,44.9909408 39.9195995,44.4419399 39.7456798,44.0146187 L43.3739573,44.0146187 C44.2006102,44.0146187 44.8706499,43.3447927 44.8706499,42.5189944 C44.8706499,41.6931962 44.2003966,41.0233702 43.3737437,41.0233702 L43.3737437,41.0233702 Z M18.8232856,47.0010598 C17.9821038,47.0010598 17.2978557,46.3299518 17.2978557,45.5050082 C17.2978557,44.6800646 17.9822106,44.0089567 18.8232856,44.0089567 C19.6644674,44.0089567 20.3488223,44.6800646 20.3488223,45.5050082 C20.3488223,46.3299518 19.6644674,47.0010598 18.8232856,47.0010598 Z M35.4960772,47.0010598 C34.6548954,47.0010598 33.9706473,46.3299518 33.9706473,45.5050082 C33.9706473,44.6800646 34.6550022,44.0089567 35.4960772,44.0089567 C36.3373658,44.0089567 37.0216139,44.6800646 37.0216139,45.5050082 C37.0216139,46.3299518 36.337259,47.0010598 35.4960772,47.0010598 Z" id="Shape" fill="#5D5B69"></path>
                    <g id="Group" transform="translate(16.451867, 0.000000)" fill="#3D91FA">
                        <path d="M10.9210481,21.6782186 C4.9272272,21.6782186 0.0508512238,16.8158374 0.0508512238,10.8391093 C0.0508512238,4.8623812 4.9272272,0 10.9210481,0 C16.9148691,0 21.791245,4.8623812 21.791245,10.8391093 C21.791245,16.8158374 16.9148691,21.6782186 10.9210481,21.6782186 Z M10.9210481,2.99060748 C6.57775537,2.99060748 3.04423629,6.51141375 3.04423629,10.8391093 C3.04423629,15.1668048 6.5778622,18.6876111 10.9210481,18.6876111 C15.2642341,18.6876111 18.79786,15.1668048 18.79786,10.8391093 C18.79786,6.51141375 15.2643409,2.99060748 10.9210481,2.99060748 L10.9210481,2.99060748 Z" id="Shape"></path>
                        <path d="M8.26984052,14.6461139 L5.86583823,11.7932107 C5.33350284,11.1615231 5.41448021,10.2182116 6.04680877,9.6863035 C6.67903049,9.15439543 7.62308987,9.23526596 8.15563893,9.8671672 L9.47648879,11.4346882 L13.5861437,7.06810645 C14.1523443,6.46654502 15.0996086,6.43738035 15.7017042,7.0030468 C16.3040134,7.56871325 16.3330712,8.5151229 15.7668706,9.11668433 L10.5051578,14.7074345 C10.0352113,15.2021657 8.83251573,15.3001291 8.26984052,14.6461139 L8.26984052,14.6461139 Z" id="Path"></path>
                    </g>
                </g>
            </g>
        </g>
    </g>
</svg>