<?xml version="1.0" encoding="UTF-8"?>
<svg width="40px" height="50px" viewBox="0 0 40 50" version="1.1" xmlns="http://www.w3.org/2000/svg" xmlns:xlink="http://www.w3.org/1999/xlink">
    <title>shopping-bag-3</title>
    <g id="Pages" stroke="none" stroke-width="1" fill="none" fill-rule="evenodd">
        <g id="Normal-Logo" transform="translate(-954.000000, -1775.000000)" fill-rule="nonzero">
            <g id="Group-5" transform="translate(0.000000, 1527.000000)">
                <g id="Group-6-Copy-2" transform="translate(954.000000, 247.000000)">
                    <g id="shopping-bag-3" transform="translate(0.000000, 1.000000)">
                        <path d="M39.6227539,41.2322266 L37.3898438,13.0958984 C37.2506836,11.2832031 35.7176758,9.86318359 33.899707,9.86318359 L29.4892578,9.86318359 L29.4892578,9.66494141 C29.4892578,4.33564453 25.1536133,0 19.8243164,0 C14.4950195,0 10.159375,4.33564453 10.159375,9.66494141 L10.159375,9.86318359 L5.74902344,9.86318359 C3.93095703,9.86318359 2.39785156,11.2831055 2.25917969,13.0920898 L0.0255859375,41.2360352 C-0.147265625,43.4894531 0.634472656,45.7329102 2.17021484,47.390918 C3.70595703,49.0489258 5.88300781,50 8.14306641,50 L31.5054688,50 C33.7654297,50 35.9425781,49.0490234 37.478418,47.390918 C39.0141602,45.7328125 39.7958008,43.4894531 39.6227539,41.2322266 Z M13.0880859,9.66494141 C13.0880859,5.95058594 16.1100586,2.92871094 19.8243164,2.92871094 C23.5385742,2.92871094 26.5605469,5.95068359 26.5605469,9.66494141 L26.5605469,9.86318359 L13.0880859,9.86318359 L13.0880859,9.66494141 Z M35.3296875,45.4008789 C34.3318359,46.4780273 32.9738281,47.0712891 31.5054687,47.0712891 L8.14316406,47.0712891 C6.67480469,47.0712891 5.31679687,46.4780273 4.31894531,45.4008789 C3.32119141,44.3236328 2.83349609,42.9240234 2.94560547,41.4638672 L5.17900391,13.3198242 C5.20166016,13.0237305 5.45205078,12.7918945 5.74902344,12.7918945 L10.159375,12.7918945 L10.159375,16.3988281 C10.159375,17.2075195 10.8150391,17.8631836 11.6237305,17.8631836 C12.4324219,17.8631836 13.0880859,17.2075195 13.0880859,16.3988281 L13.0880859,12.7918945 L26.5605469,12.7918945 L26.5605469,16.3988281 C26.5605469,17.2075195 27.2162109,17.8631836 28.0249023,17.8631836 C28.8335938,17.8631836 29.4892578,17.2075195 29.4892578,16.3988281 L29.4892578,12.7918945 L33.899707,12.7918945 C34.196582,12.7918945 34.4469727,13.0238281 34.4700195,13.3237305 L36.7029297,41.4599609 C36.8152344,42.9240234 36.3274414,44.3235352 35.3296875,45.4008789 Z" id="Shape" fill="#5D5B69"></path>
                        <path d="M26.4214844,24.8325195 C25.8498047,24.2606445 24.9225586,24.2606445 24.3507813,24.8325195 L17.8121094,31.3711914 L15.2978516,28.8569336 C14.7260742,28.2850586 13.7988281,28.2850586 13.2269531,28.8569336 C12.6550781,29.4288086 12.6550781,30.355957 13.2269531,30.927832 L16.7766602,34.4775391 C17.0625977,34.7634766 17.4374023,34.906543 17.8120117,34.906543 C18.1866211,34.906543 18.5615234,34.7635742 18.8473633,34.4775391 L26.4213867,26.9035156 C26.9933594,26.331543 26.9933594,25.4043945 26.4214844,24.8325195 Z" id="Path" fill="#3D91FA"></path>
                    </g>
                </g>
            </g>
        </g>
    </g>
</svg>