<?xml version="1.0" encoding="UTF-8"?>
<svg width="50px" height="50px" viewBox="0 0 50 50" version="1.1" xmlns="http://www.w3.org/2000/svg" xmlns:xlink="http://www.w3.org/1999/xlink">
    <title>broken-link</title>
    <g id="Pages" stroke="none" stroke-width="1" fill="none" fill-rule="evenodd">
        <g id="Normal-Logo" transform="translate(-953.000000, -2425.000000)" fill-rule="nonzero">
            <g id="Group-5" transform="translate(0.000000, 1527.000000)">
                <g id="broken-link" transform="translate(953.000000, 898.000000)">
                    <path d="M20.6885965,38.0358674 L14.8083821,43.9160819 C12.3705653,46.3538986 8.42270955,46.3538986 5.98693957,43.9165692 C3.55068226,41.4803119 3.55068226,37.5320663 5.98645224,35.0962963 L17.7489279,23.3338207 C20.1846979,20.8979532 24.1329435,20.8979532 26.5687135,23.3338207 C27.3807018,24.145809 28.697271,24.145809 29.5092593,23.3338207 C30.3212476,22.5218324 30.3212476,21.2052632 29.5092593,20.3932749 C25.4494152,16.3334308 18.8682261,16.3334308 14.8083821,20.3932749 L3.0460039,32.1557505 C-1.01384016,36.2155945 -1.01384016,42.7967836 3.0460039,46.8566277 C7.10536062,50.918616 13.687037,50.918616 17.7490253,46.8566277 L23.6292398,40.9764133 C24.4412281,40.164425 24.4412281,38.8478558 23.6292398,38.0358674 C22.8172515,37.2238791 21.5005848,37.2238791 20.6885965,38.0358674 Z" id="Path" fill="#5D5B69"></path>
                    <path d="M46.8573099,17.7465887 C50.917154,13.6867446 50.917154,7.10555556 46.8573099,3.0457115 C42.7975634,-1.01403509 36.2166667,-1.01403509 32.1547758,3.04522417 L25.0993177,10.1006823 C24.2873294,10.9126706 24.2873294,12.2292398 25.0993177,13.0412281 C25.911306,13.8532164 27.2278752,13.8532164 28.0398635,13.0412281 L35.0948343,5.98625731 C37.5322612,3.55038986 41.4808967,3.55038986 43.9167641,5.98625731 C46.3525341,8.42202729 46.3525341,12.3702729 43.9167641,14.8060429 L30.9795322,27.7432749 C28.5436647,30.1791423 24.5955166,30.1791423 22.1597466,27.7432749 C21.3477583,26.9312865 20.0311891,26.9312865 19.2192008,27.7432749 C18.4072125,28.5552632 18.4072125,29.8718324 19.2192008,30.6838207 C23.2790448,34.7436647 29.8602339,34.7436647 33.920078,30.6838207 L46.8573099,17.7465887 Z" id="Path" fill="#5D5B69"></path>
                    <path d="M38.898538,35.9576998 C38.0865497,35.1457115 36.7699805,35.1457115 35.9579922,35.9576998 C35.1460039,36.7696881 35.1460039,38.0862573 35.9579922,38.8982456 L42.1937622,45.1340156 C43.0057505,45.9460039 44.3223197,45.9460039 45.134308,45.1340156 C45.9462963,44.3220273 45.9462963,43.0054581 45.134308,42.1934698 L38.898538,35.9576998 Z" id="Path" fill="#3D91FA"></path>
                    <path d="M11.0083821,13.9486355 C11.8203704,14.7606238 13.1369396,14.7606238 13.9489279,13.9486355 C14.7609162,13.1366472 14.7609162,11.820078 13.9489279,11.0080897 L7.70692008,4.76608187 C6.89493177,3.95409357 5.57836257,3.95409357 4.76637427,4.76608187 C3.95438596,5.57807018 3.95438596,6.89463938 4.76637427,7.70662768 L11.0083821,13.9486355 Z" id="Path" fill="#3D91FA"></path>
                    <path d="M47.8235867,31.1890838 L41.58577,31.1890838 C40.4374269,31.1890838 39.5065302,32.1199805 39.5065302,33.2683236 C39.5065302,34.4166667 40.4374269,35.3475634 41.58577,35.3475634 L47.8235867,35.3475634 C48.9719298,35.3475634 49.9028265,34.4166667 49.9028265,33.2683236 C49.9028265,32.1199805 48.9719298,31.1890838 47.8235867,31.1890838 Z" id="Path" fill="#3D91FA"></path>
                    <path d="M16.6345029,10.3963938 C17.782846,10.3963938 18.7137427,9.46549708 18.7137427,8.317154 L18.7137427,2.07933723 C18.7137427,0.930896686 17.782846,0 16.6345029,0 C15.4861598,0 14.5552632,0.930896686 14.5552632,2.07923977 L14.5552632,8.31705653 C14.5551657,9.46539961 15.4861598,10.3963938 16.6345029,10.3963938 Z" id="Path" fill="#3D91FA"></path>
                    <path d="M2.07953216,18.7134503 L8.31734893,18.7134503 C9.46569201,18.7134503 10.3965887,17.7825536 10.3965887,16.6342105 C10.3965887,15.4858674 9.46569201,14.5549708 8.31734893,14.5549708 L2.07953216,14.5549708 C0.931189084,14.5549708 0.000292397661,15.4858674 0.000292397661,16.6342105 C0.000292397661,17.7825536 0.931189084,18.7134503 2.07953216,18.7134503 Z" id="Path" fill="#3D91FA"></path>
                    <path d="M33.268616,39.5061404 C32.1202729,39.5061404 31.1893762,40.437037 31.1893762,41.5853801 L31.1893762,47.8231969 C31.1893762,48.97154 32.1202729,49.9024366 33.268616,49.9024366 C34.4169591,49.9024366 35.3478558,48.97154 35.3478558,47.8231969 L35.3478558,41.5853801 C35.3479532,40.4371345 34.4169591,39.5061404 33.268616,39.5061404 Z" id="Path" fill="#3D91FA"></path>
                </g>
            </g>
        </g>
    </g>
</svg>