<?xml version="1.0" encoding="UTF-8"?>
<svg width="60px" height="60px" viewBox="0 0 60 60" version="1.1" xmlns="http://www.w3.org/2000/svg" xmlns:xlink="http://www.w3.org/1999/xlink">
    <title>twitter-6</title>
    <g id="Pages" stroke="none" stroke-width="1" fill="none" fill-rule="evenodd">
        <g id="Normal-Logo" transform="translate(-615.000000, -8348.000000)" fill-rule="nonzero">
            <g id="Footer" transform="translate(0.000000, 8203.000000)">
                <g id="twitter-6" transform="translate(615.000000, 145.000000)">
                    <circle id="Oval" fill="#EDF2FB" cx="29.7870796" cy="29.7865487" r="29.7865487"></circle>
                    <path d="M48.0323894,19.8138053 C46.7559292,20.379823 45.3828319,20.7626549 43.9428319,20.9336283 C45.4130973,20.0527434 46.5414159,18.6589381 47.0739823,16.9953982 C45.6982301,17.8115044 44.1738053,18.4035398 42.5527434,18.7226549 C41.2539823,17.339469 39.4035398,16.4750442 37.3545133,16.4750442 C33.4231858,16.4750442 30.2346903,19.6635398 30.2346903,23.5948673 C30.2346903,24.1529204 30.2978761,24.6961062 30.42,25.2175221 C24.5028319,24.920708 19.2562832,22.0863717 15.7444248,17.7775221 C15.1316814,18.8288496 14.780177,20.0527434 14.780177,21.3573451 C14.780177,23.8269027 16.0380531,26.0070796 17.9474336,27.2835398 C16.780885,27.2469027 15.6823009,26.9267257 14.7228319,26.3920354 C14.7223009,26.4223009 14.7223009,26.4525664 14.7223009,26.4823009 C14.7223009,29.9320354 17.1775221,32.8093805 20.4339823,33.4630088 C19.8371681,33.6265487 19.2069027,33.7130973 18.5585841,33.7130973 C18.0987611,33.7130973 17.6532743,33.6690265 17.2189381,33.5861947 C18.1247788,36.4141593 20.7536283,38.4727434 23.8699115,38.5306195 C21.4327434,40.440531 18.3631858,41.5784071 15.0265487,41.5784071 C14.4530973,41.5784071 13.8849558,41.5449558 13.3290265,41.4785841 C16.4782301,43.499469 20.2215929,44.6776991 24.2421239,44.6776991 C37.3380531,44.6776991 44.499823,33.8288496 44.499823,24.419469 C44.499823,24.1109735 44.4929204,23.8035398 44.479115,23.4987611 C45.8713274,22.4952212 47.0782301,21.2415929 48.0323894,19.8138053 L48.0323894,19.8138053 Z" id="Path" fill="#626981"></path>
                </g>
            </g>
        </g>
    </g>
</svg>