<?xml version="1.0" encoding="UTF-8"?>
<svg width="60px" height="60px" viewBox="0 0 60 60" version="1.1" xmlns="http://www.w3.org/2000/svg" xmlns:xlink="http://www.w3.org/1999/xlink">
    <title>instagram copy</title>
    <g id="Pages" stroke="none" stroke-width="1" fill="none" fill-rule="evenodd">
        <g id="Normal-Logo" transform="translate(-765.000000, -8348.000000)" fill-rule="nonzero">
            <g id="Footer" transform="translate(0.000000, 8203.000000)">
                <g id="Group-25" transform="translate(615.000000, 145.000000)">
                    <g id="instagram-copy" transform="translate(150.000000, 0.000000)">
                        <path d="M29.9193333,0 C13.396,0 0,13.396 0,29.9193333 C0,46.4426667 13.396,59.8386667 29.9193333,59.8386667 C46.4426667,59.8386667 59.8386667,46.4426667 59.8386667,29.9193333 C59.8386667,13.396 46.4426667,0 29.9193333,0 Z" id="Shape" fill="#EDF2FB"></path>
                        <g id="inbox" transform="translate(16.000000, 19.000000)" fill="#626981">
                            <path d="M13.989071,9.6104918 L27.2227322,1.84655738 C26.4493565,0.702277766 25.1624883,0.0117631484 23.7814208,-4.01846595e-07 L4.19672131,-4.01846595e-07 C2.80835674,-0.000606546506 1.50954368,0.685460027 0.727431694,1.83256831 L13.989071,9.6104918 Z" id="Path"></path>
                            <path d="M15.3879781,12.016612 C14.9629347,12.2631743 14.4804509,12.3934449 13.989071,12.3943169 C13.4989601,12.3977018 13.016559,12.2722775 12.5901639,12.0306011 L-3.25073302e-13,4.65836066 L-3.25073302e-13,18.1857923 C-3.25073302e-13,20.5035775 1.87893613,22.3825137 4.19672131,22.3825137 L23.7814208,22.3825137 C26.0992059,22.3825137 27.9781421,20.5035775 27.9781421,18.1857923 L27.9781421,4.65836066 L15.3879781,12.016612 Z" id="Path"></path>
                        </g>
                    </g>
                </g>
            </g>
        </g>
    </g>
</svg>