<?xml version="1.0" encoding="UTF-8"?>
<svg width="60px" height="60px" viewBox="0 0 60 60" version="1.1" xmlns="http://www.w3.org/2000/svg" xmlns:xlink="http://www.w3.org/1999/xlink">
    <title>instagram</title>
    <g id="Pages" stroke="none" stroke-width="1" fill="none" fill-rule="evenodd">
        <g id="Normal-Logo" transform="translate(-690.000000, -8348.000000)" fill-rule="nonzero">
            <g id="Footer" transform="translate(0.000000, 8203.000000)">
                <g id="Group-25" transform="translate(615.000000, 145.000000)">
                    <g id="instagram" transform="translate(75.000000, 0.000000)">
                        <path d="M29.9193333,-6.03961325e-14 C13.396,-6.03961325e-14 -6.03961325e-14,13.396 -6.03961325e-14,29.9193333 C-6.03961325e-14,46.4426667 13.396,59.8386667 29.9193333,59.8386667 C46.4426667,59.8386667 59.8386667,46.4426667 59.8386667,29.9193333 C59.8386667,13.396 46.4426667,-6.03961325e-14 29.9193333,-6.03961325e-14 Z" id="Shape" fill="#EDF2FB"></path>
                        <path d="M38.8366667,15.92 L21.002,15.92 C18.1553333,15.92 15.8393333,18.236 15.8393333,21.0826667 L15.8393333,38.9173333 C15.8393333,41.764 18.1553333,44.0806667 21.002,44.0806667 L38.8366667,44.0806667 C41.6833333,44.0806667 44,41.7646667 44,38.9173333 L44,21.0826667 C44,18.236 41.684,15.92 38.8366667,15.92 Z M29.9193333,39.2706667 C24.808,39.2706667 20.6493333,35.112 20.6493333,30 C20.6493333,24.8886667 24.808,20.73 29.9193333,20.73 C35.0313333,20.73 39.19,24.8886667 39.19,30 C39.19,35.1113333 35.0306667,39.2706667 29.9193333,39.2706667 Z M39.488,22.6466667 C38.278,22.6466667 37.294,21.6626667 37.294,20.4533333 C37.294,19.244 38.278,18.26 39.488,18.26 C40.6973333,18.26 41.6813333,19.244 41.6813333,20.4533333 C41.6813333,21.6626667 40.6973333,22.6466667 39.488,22.6466667 Z" id="Shape" fill="#626981"></path>
                        <path d="M29.9193333,24.6473333 C26.9686667,24.6473333 24.566,27.0486667 24.566,29.9993333 C24.566,32.9513333 26.9686667,35.3533333 29.9193333,35.3533333 C32.8713333,35.3533333 35.272,32.9513333 35.272,29.9993333 C35.272,27.0493333 32.8706667,24.6473333 29.9193333,24.6473333 Z" id="Path" fill="#626981"></path>
                    </g>
                </g>
            </g>
        </g>
    </g>
</svg>