<?xml version="1.0" encoding="UTF-8"?>
<svg width="88px" height="88px" viewBox="0 0 88 88" version="1.1" xmlns="http://www.w3.org/2000/svg" xmlns:xlink="http://www.w3.org/1999/xlink">
    <title>Group 2</title>
    <defs>
        <linearGradient x1="50%" y1="0%" x2="50%" y2="100%" id="linearGradient-1">
            <stop stop-color="#64A9FF" offset="0%"></stop>
            <stop stop-color="#3D91FA" offset="100%"></stop>
        </linearGradient>
        <circle id="path-2" cx="40" cy="40" r="40"></circle>
        <filter x="-8.8%" y="-6.2%" width="117.5%" height="117.5%" filterUnits="objectBoundingBox" id="filter-3">
            <feOffset dx="0" dy="2" in="SourceAlpha" result="shadowOffsetOuter1"></feOffset>
            <feGaussianBlur stdDeviation="2" in="shadowOffsetOuter1" result="shadowBlurOuter1"></feGaussianBlur>
            <feColorMatrix values="0 0 0 0 0   0 0 0 0 0   0 0 0 0 0  0 0 0 0.2 0" type="matrix" in="shadowBlurOuter1"></feColorMatrix>
        </filter>
    </defs>
    <g id="Pages" stroke="none" stroke-width="1" fill="none" fill-rule="evenodd">
        <g id="Normal-Logo" transform="translate(-837.000000, -366.000000)">
            <g id="Group-7" transform="translate(791.000000, 368.000000)">
                <g id="Group-2" transform="translate(50.000000, 0.000000)">
                    <g id="Oval">
                        <use fill="black" fill-opacity="1" filter="url(#filter-3)" xlink:href="#path-2"></use>
                        <use fill="url(#linearGradient-1)" fill-rule="evenodd" xlink:href="#path-2"></use>
                    </g>
                    <path d="M40.2092899,37.4678958 C44.7215244,37.4678958 48.6816904,39.8128086 50.8718508,43.3173803 C50.8738197,43.3205305 50.8753948,43.3232869 50.8773636,43.3264371 C50.976988,43.4859148 51.0726746,43.6477551 51.1648172,43.8119581 C51.1734803,43.8281028 51.182537,43.8442474 51.1912,43.8603921 C51.2746797,44.0112068 51.355403,44.1639904 51.4321885,44.318349 C51.4467581,44.3474881 51.4609338,44.377021 51.4755035,44.406554 C51.5444136,44.5475243 51.6105673,44.689676 51.6743584,44.8337967 C51.6936532,44.8775054 51.7121605,44.9208203 51.7306678,44.964529 C51.7869772,45.0952614 51.8401364,45.2267813 51.8913268,45.3594825 C51.9129843,45.4161856 51.9338542,45.4724951 51.9551178,45.5291983 C51.9992203,45.65048 52.0417477,45.7725494 52.0823063,45.8954063 C52.1043575,45.9631351 52.1268025,46.0312576 52.1480662,46.0993803 C52.1835057,46.2127866 52.2165825,46.3273742 52.248478,46.4423557 C52.2697418,46.5191413 52.2913993,46.5963206 52.3110878,46.6738937 C52.3386519,46.782181 52.3642471,46.8920435 52.388661,47.0015121 C52.4075621,47.0849918 52.4268569,47.1680777 52.443789,47.2515574 C52.4654465,47.3590571 52.4843476,47.4673445 52.5032486,47.5756318 C52.518212,47.661868 52.5343566,47.748104 52.5473511,47.8343401 C52.5642833,47.94499 52.5776716,48.0572151 52.5910598,48.1694402 C52.6012978,48.2533136 52.6131111,48.3367933 52.6213802,48.4210606 C52.6343748,48.5466738 52.6430377,48.6734685 52.6513069,48.7998693 C52.6560322,48.871142 52.6631201,48.9424147 52.6666641,49.0136876 C52.6769021,49.2121487 52.6824149,49.4121849 52.6824149,49.6130086 L52.6824149,49.6130086 L52.6824149,53.4199973 C52.6824149,53.9886042 52.2031943,54.4508927 51.6148988,54.4508927 L51.6148988,54.4508927 L28.8048623,54.4508927 C28.2165668,54.4508927 27.7373462,53.9886042 27.7373462,53.4199973 L27.7373462,53.4199973 L27.7373462,49.6122212 C27.7373462,49.4176977 27.7432527,49.2239618 27.7527032,49.0314073 C27.756641,48.9498964 27.7641227,48.8687794 27.7696354,48.7876623 C27.7775109,48.6801626 27.7845988,48.5726628 27.7952307,48.4655568 C27.8054687,48.3608134 27.8184632,48.2568575 27.8314576,48.1525079 C27.8409082,48.0725722 27.8511463,47.9930303 27.8625656,47.9138821 C27.8798916,47.7945691 27.8991865,47.6760437 27.9200564,47.5575183 C27.9306883,47.4972712 27.9413201,47.4370241 27.9531333,47.3767769 C27.9783347,47.2468321 28.0051112,47.1168874 28.0346441,46.9873363 C28.0444884,46.9440214 28.0551202,46.9003127 28.065752,46.8566039 C28.0996165,46.7152397 28.1350559,46.5742694 28.1740394,46.4336928 L28.1740394,46.4336928 L28.1945155,46.3636013 C28.3847075,45.698914 28.6316025,45.0503714 28.9348071,44.4262425 L28.9348071,44.4262425 L28.9446514,44.4053726 C28.9946605,44.3029919 29.0482135,44.2029738 29.1009789,44.1021682 C29.138781,44.0301079 29.1750081,43.9580475 29.2139915,43.8875623 L29.2139915,43.8875623 L29.3419675,43.6642936 C29.3974893,43.568607 29.4530112,43.4725266 29.5112895,43.3780213 C29.5455477,43.3217118 29.5817747,43.2665837 29.6172141,43.2106681 L29.7251077,43.0443978 L29.7251077,43.0443978 L29.8353639,42.8798996 L29.8353639,42.8798996 L29.9219938,42.7554675 C30.007836,42.6337919 30.096041,42.5129039 30.1862149,42.3943785 C30.2086599,42.3648456 30.2314986,42.3353127 30.2539436,42.3065674 C30.3539617,42.1778039 30.4559487,42.0506155 30.5610859,41.9257897 C30.578018,41.9057073 30.5949503,41.8856249 30.6122762,41.8651488 C32.902061,39.1808044 36.3538672,37.4678958 40.2092899,37.4678958 Z M24.0453389,39.7470486 C25.6838246,39.7470486 27.284902,40.1758665 28.6768863,40.9874308 L28.6768863,40.9874308 L29.0832592,41.2244816 L28.736346,41.680076 C28.5662364,41.9037385 28.4067587,42.1329138 28.2520063,42.3664208 L28.2520063,42.3664208 L28.1228491,42.5633067 C27.9570709,42.8224088 27.7983809,43.0913552 27.65111,43.3630579 L27.65111,43.3630579 L27.5821999,43.4933965 C27.267576,44.0872048 26.9966608,44.7097584 26.776936,45.3437316 L26.776936,45.3437316 L26.3544185,45.2826969 L26.7529159,45.4142167 C26.640297,45.7441978 26.5414603,46.0777228 26.4579805,46.4049474 C26.3697756,46.7577672 26.2981091,47.0971987 26.2417997,47.43348 L26.2417997,47.43348 L26.2339242,47.4764013 C26.1831277,47.7870874 26.1413879,48.1158872 26.1118549,48.4517747 L26.1118549,48.4517747 L26.0980729,48.6317286 C26.070115,49.0062059 26.0567268,49.3180734 26.0567268,49.6130086 L26.0567268,49.6130086 L26.0567268,52.1725273 L15.9359963,52.1725273 C15.419761,52.1725273 15,51.7649732 15,51.2644889 L15,51.2644889 L15,48.5573057 C15,43.6993393 19.0578215,39.7466549 24.0453389,39.7470486 Z M55.9542673,39.1205573 C60.9417848,39.1205573 64.9996063,43.0728479 65,47.929633 L65,47.929633 L65,50.6368161 C65,51.1376942 64.580239,51.5452484 64.0640037,51.5452484 L64.0640037,51.5452484 L53.9432732,51.5452484 L53.9432732,49.6118274 C53.9432732,49.3987966 53.9365791,49.1865535 53.926341,48.9750978 L53.926341,48.9750978 L53.9121652,48.7632485 C53.9035022,48.622278 53.8936579,48.4817014 53.8798759,48.3419123 C53.8720004,48.2607953 53.8621562,48.1800719 53.8530994,48.0989549 C53.8385298,47.9682226 53.8212039,47.8394591 53.8023028,47.7106956 C53.7900958,47.6295786 53.777889,47.5488553 53.7645007,47.4677382 C53.7424494,47.3342496 53.7180356,47.2023359 53.6916529,47.0704222 L53.6916529,47.0704222 L53.6487317,46.8558164 C53.6128984,46.6884633 53.5735212,46.5234728 53.5309938,46.3592698 L53.5309938,46.3592698 L53.5061862,46.2584641 C53.3990802,45.8532726 53.2679541,45.4421746 53.115958,45.035408 L53.115958,45.035408 L53.100601,44.9964245 C53.0206652,44.7877254 52.9493925,44.612103 52.8745757,44.4376619 L52.8745757,44.4376619 L52.8450428,44.3699332 C52.765107,44.1887979 52.6832024,44.012388 52.5977539,43.8383408 L52.5977539,43.8383408 L52.5772778,43.7962072 C52.1130204,42.8606047 51.5408696,41.9820992 50.8777574,41.1862857 L50.8777574,41.1862857 L50.5808533,40.8295282 L50.973444,40.5775141 C52.4567836,39.6241917 54.1795364,39.1205573 55.9542673,39.1205573 Z M24.0453389,28.1835372 C26.6828244,28.1835372 28.8284887,30.2724981 28.8284887,32.8402861 C28.8284887,35.4080739 26.6828244,37.4970349 24.0453389,37.4970349 C21.4078534,37.4970349 19.2621892,35.4080739 19.2621892,32.8406798 C19.2621892,30.2724981 21.4078534,28.1835372 24.0453389,28.1835372 Z M55.9542673,27.7748018 C58.5917529,27.7748018 60.737417,29.8637628 60.737417,32.4315506 C60.737417,34.9993384 58.5917529,37.0882994 55.9542673,37.0882994 C53.3167818,37.0882994 51.1711176,34.9993384 51.1711176,32.4315506 C51.1711176,29.8637628 53.3167818,27.7748018 55.9542673,27.7748018 Z M39.9175048,23.000315 C43.2736243,23.000315 46.0036464,25.6570954 46.0036464,28.9222536 C46.0036464,32.1874119 43.2736243,34.8441923 39.9175048,34.8441923 C36.5617789,34.8441923 33.8313632,32.1874119 33.8313632,28.9222536 C33.8313632,25.6570954 36.5613851,23.000315 39.9175048,23.000315 Z" id="Combined-Shape" fill="#FFFFFF" fill-rule="nonzero"></path>
                </g>
            </g>
        </g>
    </g>
</svg>