<?xml version="1.0" encoding="UTF-8"?>
<svg width="24px" height="16px" viewBox="0 0 24 16" version="1.1" xmlns="http://www.w3.org/2000/svg" xmlns:xlink="http://www.w3.org/1999/xlink">
    <title>menu</title>
    <g id="Pages" stroke="none" stroke-width="1" fill="none" fill-rule="evenodd">
        <g id="Mobile" transform="translate(-20.000000, -21.000000)" fill="#8D89A4" fill-rule="nonzero">
            <g id="NavBar" transform="translate(0.000000, 15.000000)">
                <path d="M21.3333333,22 L42.6666667,22 C43.4,22 44,21.4 44,20.6666667 C44,19.9333333 43.4,19.3333333 42.6666667,19.3333333 L21.3333333,19.3333333 C20.6,19.3333333 20,19.9333333 20,20.6666667 C20,21.4 20.6,22 21.3333333,22 Z M21.3333333,15.3333333 L42.6666667,15.3333333 C43.4,15.3333333 44,14.7333333 44,14 C44,13.2666667 43.4,12.6666667 42.6666667,12.6666667 L21.3333333,12.6666667 C20.6,12.6666667 20,13.2666667 20,14 C20,14.7333333 20.6,15.3333333 21.3333333,15.3333333 Z M20,7.33333333 C20,8.06666667 20.6,8.66666667 21.3333333,8.66666667 L42.6666667,8.66666667 C43.4,8.66666667 44,8.06666667 44,7.33333333 C44,6.6 43.4,6 42.6666667,6 L21.3333333,6 C20.6,6 20,6.6 20,7.33333333 Z" id="menu"></path>
            </g>
        </g>
    </g>
</svg>