<?xml version="1.0" encoding="UTF-8"?>
<svg width="30px" height="30px" viewBox="0 0 30 30" version="1.1" xmlns="http://www.w3.org/2000/svg" xmlns:xlink="http://www.w3.org/1999/xlink">
    <title>Shape</title>
    <g id="Pages" stroke="none" stroke-width="1" fill="none" fill-rule="evenodd">
        <g id="Mobile" transform="translate(-365.000000, -14.000000)" fill="#8D89A4" fill-rule="nonzero" stroke="#8D89A4" stroke-width="0.5">
            <g id="NavBar" transform="translate(0.000000, 15.000000)">
                <path d="M390.066146,4.3000167 C387.428827,1.54718998 383.779766,-0.00637160752 379.967441,0.000619354737 C372.263173,-0.0090605428 366.009704,6.2286263 365.999989,13.932952 C365.995207,17.7424718 367.548593,21.3882004 370.299374,24.0236493 C370.307382,24.0315992 370.310363,24.0435825 370.318313,24.0505971 C370.399098,24.1284008 370.486898,24.1942797 370.568735,24.2691023 C370.793203,24.4686096 371.01767,24.6751315 371.254121,24.8676827 C371.380793,24.9674656 371.512493,25.06719 371.642205,25.1589645 C371.865678,25.3255616 372.089152,25.4921587 372.322564,25.6458372 C372.481211,25.74562 372.644827,25.8453445 372.80739,25.9451273 C373.022856,26.0748392 373.237386,26.2054864 373.459866,26.3242088 C373.648443,26.4239916 373.840935,26.5097453 374.032493,26.6005261 C374.241996,26.700309 374.448518,26.8000334 374.66299,26.8898205 C374.877461,26.9796075 375.092985,27.0494614 375.310438,27.1272651 C375.527891,27.2050689 375.715474,27.2769102 375.923983,27.3407432 C376.159441,27.4115908 376.40086,27.4664217 376.640292,27.525286 C376.8398,27.5741545 377.033344,27.6300376 377.238873,27.6699624 C377.514196,27.7248518 377.793553,27.7597495 378.07291,27.7976868 C378.245528,27.8216534 378.414113,27.8555574 378.58866,27.8725094 C379.045603,27.9174029 379.506463,27.9423633 379.971357,27.9423633 C380.436251,27.9423633 380.897169,27.9174029 381.354054,27.8725094 C381.52866,27.8555574 381.697244,27.8216534 381.869804,27.7976868 C382.149161,27.7597495 382.428459,27.7248518 382.703841,27.6699624 C382.903349,27.6300376 383.102914,27.5701795 383.302422,27.525286 C383.541854,27.4664217 383.783273,27.4115324 384.018731,27.3407432 C384.22724,27.2769102 384.428735,27.1991065 384.632276,27.1272651 C384.835816,27.0554238 385.06724,26.97762 385.279724,26.8898205 C385.492209,26.8020209 385.700718,26.6992568 385.910221,26.6005261 C386.101779,26.5097453 386.29433,26.4239332 386.482848,26.3242088 C386.705328,26.2054864 386.9198,26.0747808 387.135324,25.9451273 C387.297946,25.8453445 387.461562,25.7545637 387.62015,25.6458372 C387.85362,25.4922171 388.077094,25.32562 388.300509,25.1589645 C388.430221,25.0591816 388.561862,24.9693946 388.688593,24.8676827 C388.925044,24.6781127 389.149511,24.476618 389.373979,24.2691023 C389.455758,24.1942797 389.543557,24.1284593 389.624401,24.0505971 C389.632351,24.0436409 389.63539,24.0316576 389.64334,24.0236493 C395.206747,18.6938288 395.395967,9.86324843 390.066146,4.3000167 Z M387.823866,22.9791148 C387.642305,23.1387557 387.454722,23.2903883 387.265211,23.4370522 C387.153503,23.5228643 387.041737,23.6076242 386.92699,23.6894614 C386.746422,23.820167 386.562873,23.943858 386.376284,24.0625804 C386.24061,24.1493862 386.101954,24.2331524 385.962246,24.3149896 C385.786647,24.4147724 385.608067,24.5144969 385.427499,24.6142797 C385.267858,24.6960585 385.105236,24.7729269 384.941678,24.8487432 C384.778121,24.9245595 384.597495,25.0053445 384.420902,25.0761921 C384.244309,25.1470397 384.056785,25.2138539 383.872184,25.2756994 C383.703599,25.3335699 383.535015,25.393428 383.364384,25.4442839 C383.164877,25.504142 382.956367,25.5530104 382.749846,25.6029311 C382.588217,25.64081 382.428635,25.6837161 382.265019,25.715691 C382.028568,25.7615783 381.787148,25.7934948 381.544735,25.826405 C381.407073,25.8443507 381.270405,25.8693111 381.131691,25.8832818 C380.748576,25.920167 380.360493,25.9421461 379.968434,25.9421461 C379.576376,25.9421461 379.188292,25.9202255 378.805177,25.8832818 C378.666522,25.8693111 378.529854,25.8443507 378.392134,25.826405 C378.14972,25.7934948 377.908301,25.7615783 377.67185,25.715691 C377.508234,25.6837745 377.348593,25.6408685 377.187023,25.6029311 C376.980501,25.5530689 376.774973,25.5031482 376.572484,25.4442839 C376.401912,25.393428 376.233269,25.3335699 376.064685,25.2756994 C375.880142,25.2118664 375.695541,25.1469812 375.515967,25.0761921 C375.336392,25.0053445 375.166814,24.9275407 374.99519,24.8487432 C374.823566,24.7699457 374.668952,24.6961169 374.50937,24.6142797 C374.328802,24.5205177 374.150221,24.4217286 373.974622,24.3149896 C373.834973,24.2332109 373.696259,24.1493862 373.560585,24.0625804 C373.374054,23.943858 373.190447,23.820167 373.009879,23.6894614 C372.895132,23.6076827 372.783424,23.5228643 372.671658,23.4370522 C372.482088,23.2903883 372.294564,23.137762 372.113002,22.9791148 C372.069102,22.9462046 372.029177,22.9042923 371.98633,22.8663549 C372.030931,19.4726263 374.211132,16.4759833 377.426455,15.3890689 C379.034146,16.1538372 380.900735,16.1538372 382.508426,15.3890689 C385.723691,16.4759833 387.903891,19.4725678 387.948551,22.8663549 C387.906639,22.9042923 387.866714,22.9422296 387.823866,22.9791148 Z M376.488601,7.99952401 C377.568793,6.07845511 380.001754,5.39681002 381.922823,6.47700209 C383.843891,7.55719415 384.525537,9.99015449 383.445344,11.9112234 C383.086956,12.548618 382.560276,13.0752985 381.922823,13.4337453 C381.917854,13.4337453 381.911833,13.4337453 381.905871,13.4397077 C381.641303,13.5869562 381.361712,13.7053862 381.071833,13.7928935 C381.019983,13.807858 380.97205,13.8277912 380.917219,13.8407683 C380.817436,13.8667223 380.712685,13.8846681 380.609921,13.9026138 C380.416434,13.9364593 380.220668,13.9561002 380.024317,13.9614781 L379.910564,13.9614781 C379.714213,13.9561002 379.518447,13.9364593 379.32496,13.9026138 C379.225177,13.8846681 379.119432,13.8667223 379.01772,13.8407683 C378.964818,13.8277912 378.917937,13.807858 378.863106,13.7928935 C378.573228,13.7053862 378.293637,13.5870146 378.029069,13.4397077 L378.011123,13.4337453 C376.090054,12.3535532 375.408409,9.9205929 376.488601,7.99952401 Z M389.718338,20.8881169 L389.718338,20.8881169 C389.078138,17.9020543 387.111825,15.3705386 384.377002,14.0114572 C386.612618,11.5761587 386.450697,7.78961169 384.015399,5.55399582 C381.5801,3.31837996 377.793553,3.48030063 375.557937,5.91559916 C373.456242,8.20505219 373.456242,11.7220626 375.557937,14.0114572 C372.823115,15.3705971 370.856802,17.9020543 370.216601,20.8881169 C366.391065,15.4995491 367.658138,8.03003758 373.046706,4.20450104 C378.435273,0.378964509 385.904785,1.64603758 389.730322,7.03460543 C391.168376,9.06025052 391.940334,11.4832735 391.939108,13.967499 C391.939108,16.4495616 391.162589,18.869428 389.718338,20.8881169 Z" id="Shape"></path>
            </g>
        </g>
    </g>
</svg>