<?xml version="1.0" encoding="UTF-8"?>
<svg width="88px" height="88px" viewBox="0 0 88 88" version="1.1" xmlns="http://www.w3.org/2000/svg" xmlns:xlink="http://www.w3.org/1999/xlink">
    <title>Group 27</title>
    <defs>
        <linearGradient x1="50%" y1="0%" x2="50%" y2="100%" id="linearGradient-1">
            <stop stop-color="#00FF1C" offset="0%"></stop>
            <stop stop-color="#00C816" offset="100%"></stop>
        </linearGradient>
        <circle id="path-2" cx="40" cy="40" r="40"></circle>
        <filter x="-8.8%" y="-6.2%" width="117.5%" height="117.5%" filterUnits="objectBoundingBox" id="filter-3">
            <feOffset dx="0" dy="2" in="SourceAlpha" result="shadowOffsetOuter1"></feOffset>
            <feGaussianBlur stdDeviation="2" in="shadowOffsetOuter1" result="shadowBlurOuter1"></feGaussianBlur>
            <feColorMatrix values="0 0 0 0 0   0 0 0 0 0   0 0 0 0 0  0 0 0 0.2 0" type="matrix" in="shadowBlurOuter1"></feColorMatrix>
        </filter>
    </defs>
    <g id="Pages" stroke="none" stroke-width="1" fill="none" fill-rule="evenodd">
        <g id="Normal-Logo" transform="translate(-1163.000000, -251.000000)">
            <g id="Group-7-Copy" transform="translate(1074.000000, 253.000000)">
                <g id="Group-27" transform="translate(93.000000, 0.000000)">
                    <g id="Oval">
                        <use fill="black" fill-opacity="1" filter="url(#filter-3)" xlink:href="#path-2"></use>
                        <use fill="url(#linearGradient-1)" fill-rule="evenodd" xlink:href="#path-2"></use>
                    </g>
                    <g id="purse" transform="translate(18.000000, 18.000000)" fill="#FFFFFF" fill-rule="nonzero">
                        <path d="M37.3828125,21.44175 L44,21.44175 L44,13.707375 L2.578125,13.707375 C1.63478906,13.707375 0.76140625,13.4343516 0,12.9903125 L0,35.6214375 C0,39.1752109 2.89153906,42.06675 6.4453125,42.06675 L44,42.06675 L44,34.332375 L37.3828125,34.332375 C33.8290391,34.332375 30.9375,31.4408359 30.9375,27.8870625 C30.9375,24.3332891 33.8290391,21.44175 37.3828125,21.44175 Z M21.9140625,26.598 C24.0465156,26.598 25.78125,28.3327344 25.78125,30.4651875 C25.78125,32.1435469 24.7003281,33.561 23.203125,34.0949297 L23.203125,36.9105 L20.625,36.9105 L20.625,34.0949297 C19.1277969,33.561 18.046875,32.1435469 18.046875,30.4651875 L20.625,30.4651875 C20.625,31.1764062 21.2028437,31.75425 21.9140625,31.75425 C22.6252813,31.75425 23.203125,31.1764062 23.203125,30.4651875 C23.203125,29.7539687 22.6252813,29.176125 21.9140625,29.176125 C19.7816094,29.176125 18.046875,27.4413906 18.046875,25.3089375 C18.046875,23.6305781 19.1277969,22.213125 20.625,21.6791953 L20.625,18.863625 L23.203125,18.863625 L23.203125,21.6791953 C24.7003281,22.213125 25.78125,23.6305781 25.78125,25.3089375 L23.203125,25.3089375 C23.203125,24.5977187 22.6252813,24.019875 21.9140625,24.019875 C21.2028437,24.019875 20.625,24.5977187 20.625,25.3089375 C20.625,26.0201562 21.2028437,26.598 21.9140625,26.598 Z" id="Shape"></path>
                        <path d="M37.3828125,24.019875 C35.2503594,24.019875 33.515625,25.7546094 33.515625,27.8870625 C33.515625,30.0195156 35.2503594,31.75425 37.3828125,31.75425 L44,31.75425 L44,24.019875 L37.3828125,24.019875 Z M38.671875,29.176125 L36.09375,29.176125 L36.09375,26.598 L38.671875,26.598 L38.671875,29.176125 Z" id="Shape"></path>
                        <polygon id="Path" points="16.7578125 0.042625 7.88940625 11.12925 25.6262188 11.12925"></polygon>
                        <polygon id="Path" points="27.0703125 0.042625 23.5651797 4.42483594 28.9289687 11.12925 35.9387187 11.12925"></polygon>
                        <polygon id="Path" points="35.1162109 5.973 39.2414687 11.12925 41.25 11.12925 41.25 5.973"></polygon>
                        <path d="M2.578125,5.973 C1.15422656,5.973 0,7.12722656 0,8.551125 C0,9.9749375 1.15422656,11.12925 2.578125,11.12925 L4.58665625,11.12925 L8.71191406,5.973 L2.578125,5.973 L2.578125,5.973 Z" id="Path"></path>
                    </g>
                </g>
            </g>
        </g>
    </g>
</svg>