<?xml version="1.0" encoding="UTF-8"?>
<svg width="88px" height="88px" viewBox="0 0 88 88" version="1.1" xmlns="http://www.w3.org/2000/svg" xmlns:xlink="http://www.w3.org/1999/xlink">
    <title>Group 28</title>
    <defs>
        <linearGradient x1="50%" y1="0%" x2="50%" y2="99.798712%" id="linearGradient-1">
            <stop stop-color="#F6824F" offset="0%"></stop>
            <stop stop-color="#F6604F" offset="100%"></stop>
        </linearGradient>
        <circle id="path-2" cx="40" cy="40" r="40"></circle>
        <filter x="-8.8%" y="-6.2%" width="117.5%" height="117.5%" filterUnits="objectBoundingBox" id="filter-3">
            <feOffset dx="0" dy="2" in="SourceAlpha" result="shadowOffsetOuter1"></feOffset>
            <feGaussianBlur stdDeviation="2" in="shadowOffsetOuter1" result="shadowBlurOuter1"></feGaussianBlur>
            <feColorMatrix values="0 0 0 0 0   0 0 0 0 0   0 0 0 0 0  0 0 0 0.2 0" type="matrix" in="shadowBlurOuter1"></feColorMatrix>
        </filter>
    </defs>
    <g id="Pages" stroke="none" stroke-width="1" fill="none" fill-rule="evenodd">
        <g id="Normal-Logo" transform="translate(-1095.000000, -507.000000)">
            <g id="Group-7-Copy-2" transform="translate(993.000000, 509.000000)">
                <g id="Group-28" transform="translate(106.000000, 0.000000)">
                    <g id="Oval">
                        <use fill="black" fill-opacity="1" filter="url(#filter-3)" xlink:href="#path-2"></use>
                        <use fill="url(#linearGradient-1)" fill-rule="evenodd" xlink:href="#path-2"></use>
                    </g>
                    <g id="check" transform="translate(15.000000, 14.000000)" fill="#FFFFFF" fill-rule="nonzero">
                        <path d="M49.3211458,28.4596875 L48.3628125,27.1471875 C47.5711458,26.0638542 47.5607292,24.5951042 48.3315625,23.4909375 L49.2690625,22.1680208 C50.3523958,20.6263542 49.8523958,18.4909375 48.1857292,17.5951042 L46.7586458,16.8242708 C45.5711458,16.1888542 44.9253125,14.8659375 45.1440625,13.5430208 L45.4148958,11.9388542 C45.7273958,10.0846875 44.3419792,8.3659375 42.4565625,8.29302083 L40.8315625,8.22010417 C39.4878125,8.16802083 38.3315625,7.25135417 37.9565625,5.9596875 L37.5086458,4.3971875 C36.9878125,2.5846875 34.9982292,1.6471875 33.2586458,2.3971875 L31.7690625,3.04302083 C30.5294792,3.57427083 29.1023958,3.26177083 28.1961458,2.25135417 L27.1128125,1.04302083 C25.8523958,-0.363229167 23.6544792,-0.342395833 22.4148958,1.07427083 L21.3523958,2.3034375 C20.4669792,3.31385417 19.0398958,3.65760417 17.8003125,3.1471875 L16.3003125,2.53260417 C14.5607292,1.81385417 12.5815625,2.78260417 12.0815625,4.60552083 L11.6544792,6.16802083 C11.3107292,7.48052083 10.1753125,8.40760417 8.8315625,8.48052083 L7.2065625,8.57427083 C5.32114583,8.6784375 3.96697917,10.4180208 4.31072917,12.2617708 L4.60239583,13.8555208 C4.84197917,15.1784375 4.21697917,16.5117708 3.03989583,17.1576042 L1.62322917,17.9492708 C-0.0226041667,18.8659375 -0.501770833,21.0117708 0.6128125,22.5326042 L1.57114583,23.8451042 C2.3628125,24.9284375 2.37322917,26.3971875 1.60239583,27.5013542 L0.664895833,28.8242708 C-0.4184375,30.3659375 0.0815625,32.5013542 1.74822917,33.3971875 L3.1753125,34.1680208 C4.3628125,34.8034375 5.00864583,36.1263542 4.78989583,37.4492708 L4.50864583,39.0430208 C4.19614583,40.8971875 5.5815625,42.6159375 7.46697917,42.6888542 L9.09197917,42.7617708 C10.4357292,42.8138542 11.5919792,43.7305208 11.9669792,45.0221875 L12.4148958,46.5846875 C12.9357292,48.3971875 14.9253125,49.3346875 16.6648958,48.5846875 L18.1544792,47.9388542 C19.3940625,47.4076042 20.8211458,47.7201042 21.7273958,48.7201042 L22.8107292,49.9284375 C24.0711458,51.3346875 26.2690625,51.3138542 27.5086458,49.8971875 L28.5711458,48.6680208 C29.4565625,47.6576042 30.8836458,47.3138542 32.1232292,47.8242708 L33.6232292,48.4388542 C35.3628125,49.1576042 37.3419792,48.1888542 37.8419792,46.3659375 L38.2690625,44.8034375 C38.6232292,43.5117708 39.7690625,42.5846875 41.1128125,42.5013542 L42.7378125,42.4076042 C44.6232292,42.3034375 45.9773958,40.5638542 45.6336458,38.7201042 L45.3419792,37.1263542 C45.1023958,35.8034375 45.7273958,34.4701042 46.9044792,33.8242708 L48.3211458,33.0326042 C49.9565625,32.1367708 50.4253125,29.9805208 49.3211458,28.4596875 Z M24.9669792,41.9492708 C15.8836458,41.9492708 8.5190625,34.5846875 8.5190625,25.5013542 C8.5190625,16.4180208 15.8836458,9.0534375 24.9669792,9.0534375 C34.0503125,9.0534375 41.4148958,16.4180208 41.4148958,25.5013542 C41.4148958,34.5846875 34.0503125,41.9492708 24.9669792,41.9492708 Z" id="Shape"></path>
                        <path d="M22.8628125,25.9388542 L21.4044792,24.4701042 C20.5398958,23.5951042 19.1232292,23.5951042 18.2482292,24.4596875 L18.2482292,24.4596875 C17.3732292,25.3242708 17.3732292,26.7409375 18.2378125,27.6159375 L19.6961458,29.0846875 L21.3211458,30.7096875 C22.1648958,31.5638542 23.5398958,31.5638542 24.3940625,30.7201042 L26.0190625,29.1055208 L31.6857292,23.4701042 C32.5607292,22.6055208 32.5607292,21.1888542 31.6961458,20.3138542 L31.6961458,20.3138542 C30.8315625,19.4388542 29.4148958,19.4388542 28.5398958,20.3034375 L22.8628125,25.9388542 Z" id="Path"></path>
                    </g>
                </g>
            </g>
        </g>
    </g>
</svg>