<svg width="24" height="24" viewBox="0 0 24 24" fill="none" xmlns="http://www.w3.org/2000/svg">
<circle cx="12" cy="12" r="11.5" fill="#1DA1F2" stroke="white"/>
<mask id="mask0" mask-type="alpha" maskUnits="userSpaceOnUse" x="0" y="0" width="24" height="24">
<circle cx="12" cy="12" r="11.5" fill="white" stroke="white"/>
</mask>
<g mask="url(#mask0)">
<path d="M19 7.85303C18.5003 8.11443 17.7476 8.23522 17.4981 8.27003C17.496 8.25797 17.494 8.24642 17.4919 8.23488C18.3402 7.71018 18.5999 6.72229 18.5999 6.72229C18.0745 7.02263 17.6115 7.18926 17.2627 7.28163C17.0666 7.33418 16.9065 7.36261 16.7914 7.37847C16.2628 6.83636 15.5246 6.5 14.7074 6.5C13.0997 6.5 11.7961 7.80323 11.7961 9.41145C11.7961 9.46935 11.7977 9.52691 11.8015 9.58394C11.8092 9.72335 11.827 9.86034 11.8544 9.99354C11.0762 9.98199 8.26729 9.74334 5.93964 7.03952C5.93964 7.03952 4.64348 9.301 6.82259 10.8458C6.82259 10.8458 5.93964 10.8182 5.47094 10.4872C5.47094 10.4872 5.33309 12.6663 7.84287 13.3556C7.84287 13.3556 6.96044 13.5765 6.51879 13.3833C6.51879 13.3833 6.96027 15.2588 9.16678 15.397C9.16678 15.397 7.58423 16.8459 5 16.6374C6.271 17.4421 7.77791 17.9078 9.39355 17.9078C13.9363 17.9078 17.6191 14.2253 17.6191 9.68251C17.6191 9.62582 17.6185 9.56912 17.6173 9.51243C17.6185 9.47883 17.6191 9.4454 17.6191 9.41145C17.6191 9.38785 17.6185 9.36424 17.6182 9.34063C18.4581 8.78095 19 7.85303 19 7.85303Z" fill="white"/>
</g>
</svg>
